<?xml version="1.0" encoding="utf-8"?>
<!-- Generator: Adobe Illustrator 22.1.0, SVG Export Plug-In . SVG Version: 6.00 Build 0)  -->
<svg version="1.1" id="Calque_11" xmlns="http://www.w3.org/2000/svg" xmlns:xlink="http://www.w3.org/1999/xlink" x="0px" y="0px"
	 viewBox="0 0 200 200" style="enable-background:new 0 0 200 200;" xml:space="preserve">
<style type="text/css">
	.st0{fill:#FCDC74;}
	.st1{fill:#29306F;}
	.st2{fill:#FFFFFF;}
	.st3{fill:#F6A76C;}
	.st4{fill:#FDFDFD;}
</style>
<g>
	<g>
		<path class="st0" d="M151.8,73.9c0-29-23.5-52.5-52.5-52.5S46.8,44.9,46.8,73.9c0,17.1,8.2,32.3,20.8,41.9
			c10.9,12.8,30.8,13.4,32.3,19c0,0.1,0,0.1,0,0.2c0,0,0-0.1,0-0.1c0,0,0,0.1,0,0.1c0-0.1,0-0.1,0-0.2c1.5-5.7,22.3-6.2,33.1-19.9
			c0,0,0-0.1,0-0.1c0.1-0.3,0.1-0.5,0.1-0.8C144.6,104.3,151.8,89.9,151.8,73.9z"/>
		<path class="st1" d="M148,25.5c-0.1-1.4-1.6-2.9-3.3-4.1c-2.5-1.8-5.4-3.1-5.4-3.1c-19.4-5-26.1,17.1-28.8,15.1
			c-2.5-1.9-9.4-2.3-10.5-2.3l0,0c0,0,0,0-0.1,0c-0.1,0-0.1,0-0.1,0l0,0c-1.1,0.1-8,0.5-10.5,2.3c-2.7,2-9.4-20.1-28.8-15.1
			c0,0-2.9,1.3-5.4,3.1c-1.7,1.2-3.2,2.7-3.3,4.1c0,0,7-5.2,6,0c-1,5.2-0.3,22.9,3.7,26.6c0,0-3.4,8-2.4,14.7c0,0,5-12.1,6-5.7
			c1,6.4,2,13.4-1.7,25.1C60,98,61.6,104.6,63,108.1c1,2.5,2.3,4.7,3.8,6.7c-4.3-21,23.8-31.4,23.8-31.4l9.3-7.1v-0.1l0,0l0,0v0.1
			l9.3,7.1c0,0,28.1,10.5,23.8,31.4c0,0,0,0.1,0,0.1c1.6-2,2.9-4.2,3.9-6.8c1.4-3.4,3-10.1-0.7-21.8c-3.7-11.7-2.7-18.8-1.7-25.1
			c1-6.4,6,5.7,6,5.7c1-6.7-2.4-14.7-2.4-14.7c4-3.7,4.7-21.4,3.7-26.6C141,20.3,148,25.5,148,25.5z"/>
		<path class="st2" d="M109.3,83.3l-9.3-7.1v-0.1l0,0l0,0v0.1l-9.3,7.1c0,0-28.1,10.5-23.8,31.4c10.7,13.8,31.6,14.3,33.2,20
			c0,0.1,0,0.1,0,0.2c0,0,0-0.1,0-0.1c0,0,0,0.1,0,0.1c0-0.1,0-0.1,0-0.2c1.5-5.7,22.3-6.2,33.1-19.9c0,0,0-0.1,0-0.1
			C137.4,93.8,109.3,83.3,109.3,83.3z"/>
		<path class="st3" d="M100,76.2l0-8.5c0,0-8-5.1-13.8-1.5c-5.8,3.6-13.6,7.4-12.9,14.6c0.7,7.1,1.4,5.9-1.7,11.6
			c-3.1,5.7-3.4,9.8-3.4,9.8c5.6-12.6,22.5-18.9,22.5-18.9L100,76.2L100,76.2L100,76.2L100,76.2z"/>
		<path class="st3" d="M100,76.2l0-8.5c0,0,8-5.1,13.8-1.5c5.8,3.6,13.6,7.4,12.9,14.6c-0.7,7.1-1.4,5.9,1.7,11.6
			c3.1,5.7,3.4,9.8,3.4,9.8c-5.6-12.6-22.5-18.9-22.5-18.9L100,76.2L100,76.2L100,76.2L100,76.2z"/>
		<g>
			<path class="st2" d="M80.7,62.7c0.4,2.8,2.7,5,5.6,5c2.4,0,4.5-1.6,5.3-3.8C88.7,59.7,83.3,61.5,80.7,62.7z"/>
			<path class="st1" d="M88.2,63.5c-0.9,0-1.6-0.3-1.6-0.6c0-0.3,0.7-0.6,1.6-0.6c0.1,0,0.2,0,0.4,0c-0.5-0.8-1.4-1.2-2.4-1.2
				c-1.6,0-3,1.3-3,3c0,1.6,1.3,3,3,3s3-1.3,3-3c0-0.2,0-0.5-0.1-0.7C88.8,63.4,88.5,63.5,88.2,63.5z"/>
			<path class="st4" d="M92.5,66.2c-0.2,0-0.4-0.1-0.5-0.3c-0.7-1.9-1.9-3.1-3.5-3.7c-3.8-1.3-8.9,1.6-8.9,1.7
				c-0.2,0.1-0.5,0.1-0.7-0.2c-0.1-0.2-0.1-0.5,0.2-0.7c0.2-0.1,5.5-3.2,9.8-1.7c1.9,0.7,3.2,2.1,4.1,4.3c0.1,0.3,0,0.5-0.3,0.6
				C92.6,66.1,92.5,66.2,92.5,66.2z"/>
		</g>
		<g>
			<path class="st2" d="M118.9,62.7c-0.4,2.8-2.7,5-5.6,5c-2.4,0-4.5-1.6-5.3-3.8C110.9,59.7,116.4,61.5,118.9,62.7z"/>
			<path class="st1" d="M111.4,63.5c0.9,0,1.6-0.3,1.6-0.6c0-0.3-0.7-0.6-1.6-0.6c-0.1,0-0.2,0-0.4,0c0.5-0.8,1.4-1.2,2.4-1.2
				c1.6,0,3,1.3,3,3c0,1.6-1.3,3-3,3c-1.6,0-3-1.3-3-3c0-0.2,0-0.5,0.1-0.7C110.8,63.4,111.1,63.5,111.4,63.5z"/>
			<path class="st4" d="M107.2,66.2c-0.1,0-0.1,0-0.2,0c-0.3-0.1-0.4-0.4-0.3-0.6c0.8-2.2,2.2-3.6,4.1-4.3c4.2-1.5,9.6,1.6,9.8,1.7
				c0.2,0.1,0.3,0.4,0.2,0.7c-0.1,0.2-0.4,0.3-0.7,0.2c-0.1,0-5.1-3-8.9-1.7c-1.6,0.6-2.7,1.8-3.5,3.7
				C107.6,66,107.4,66.2,107.2,66.2z"/>
		</g>
		<path class="st1" d="M87,31.8c0,0,1.2-5.7,0-10.3c0,0,7.8,11.7,4.6,13.4c-3.2,1.7-7.5,0-7.5,0L87,31.8z"/>
		<path class="st1" d="M112.9,31.8c0,0-1.2-5.7,0-10.3c0,0-7.8,11.7-4.6,13.4c3.2,1.7,7.5,0,7.5,0L112.9,31.8z"/>
		<ellipse class="st1" cx="100.3" cy="80.9" rx="7.8" ry="3.1"/>
		<path class="st2" d="M112.3,75.1c-1.7-2.4-6.5-5.4-7.6-7.2c-2-3.5-3.4-6.3,3.1-18.4c6.4-12.1-7.8-11.6-7.8-11.6
			s-14.2-0.5-7.8,11.6c6.4,12.1,5,14.9,3.1,18.4c-1,1.8-5.9,4.8-7.6,7.2c-0.8,1.1-0.8,2.8-0.7,4.4c0.3,2.5,2.3,4.4,4.9,4.5
			c0,0,0.1,0,0.1,0c3.3,0.1,8-1.5,8-1.5s4.7,1.6,8,1.5c0,0,0.1,0,0.1,0c2.5-0.1,4.6-2,4.9-4.5C113.2,77.8,113.1,76.1,112.3,75.1z"/>
		<ellipse class="st1" cx="100" cy="76.2" rx="5.4" ry="3.4"/>
	</g>
</g>
</svg>
