<?xml version="1.0" encoding="utf-8"?>
<!-- Generator: Adobe Illustrator 22.1.0, SVG Export Plug-In . SVG Version: 6.00 Build 0)  -->
<svg version="1.1" id="Calque_11" xmlns="http://www.w3.org/2000/svg" xmlns:xlink="http://www.w3.org/1999/xlink" x="0px" y="0px"
	 viewBox="0 0 478.6 367.4" style="enable-background:new 0 0 478.6 367.4;" xml:space="preserve">
<style type="text/css">
	.st0{fill:#FCDC74;}
	.st1{fill:#29306F;}
	.st2{fill:#FFFFFF;}
	.st3{fill:#F6A76C;}
	.st4{fill:#FDFDFD;}
</style>
<g>
	<g>
		<g>
			<path class="st0" d="M267,193.7c0,0.4-0.2,0.7-0.6,1.1c-0.4,0.4-0.6,0.9-0.7,1.6c-0.1,0.4-0.3,0.6-0.6,0.6c-0.2,0-0.4,0-0.6-0.1
				c-0.2-0.1-0.4-0.2-0.7-0.3c-0.3-0.1-0.6-0.2-1-0.3c-0.4-0.1-1-0.1-1.7-0.1c-1.1,0-2.1,0.1-3.1,0.4c-1.1,0.3-2,0.7-2.9,1.3
				c-1.7,1.1-3.6,2.7-5.6,4.7c-2,2-3.9,4.3-5.5,6.7c-4.1,5.9-7.8,11.5-10.9,16.6c-3.1,5.1-5.7,9.8-7.8,13.9s-3.7,7.6-4.7,10.4
				c-1.1,2.9-1.6,5-1.6,6.3c0,1.1,0.2,1.9,0.7,2.6c0.5,0.7,1.2,1,2.3,1c1.7,0,3.3-0.5,4.8-1.6c1.5-1.1,2.9-2.4,4.3-3.9
				c1.4-1.6,2.6-3.3,3.7-5.2c1.1-1.9,2.1-3.7,2.9-5.4c0.1-0.2,0.3-0.3,0.6-0.3c0.3,0.1,0.3,0.3,0,0.7c-1.1,2.2-2.3,4.3-3.6,6.3
				c-1.3,2-2.6,3.8-4,5.3c-1.4,1.5-2.8,2.7-4.4,3.6c-1.5,0.9-3,1.3-4.5,1.3c-1.7,0-2.9-0.4-3.7-1.3c-0.8-0.9-1.2-2.1-1.2-3.5
				c0-1.5,0.3-3.1,0.9-4.8c0.6-1.7,1.5-3.8,2.7-6.3c-1.7,2.1-3.2,3.9-4.5,5.3s-2.4,2.5-3.4,3.3c-1,0.8-1.8,1.4-2.6,1.7
				c-0.7,0.3-1.3,0.5-1.9,0.5c-0.9,0-1.4-0.2-1.8-0.7c-0.3-0.5-0.5-1.1-0.5-1.8c0-0.6,0.1-1.3,0.5-2.2c0.3-0.9,0.7-1.8,1.3-2.6
				c2.3-3.7,4.8-6.7,7.6-9.1c2.8-2.4,6.3-3.9,10.4-4.6c3-5.2,5.8-9.9,8.5-14c2.7-4.1,5.7-8.2,8.9-12.1c2.6-3.3,5.3-6.3,7.9-8.8
				s5.3-4.4,8.1-5.7c2.1-1,3.9-1.5,5.5-1.5c0.7,0,1.3,0.1,1.8,0.3C266.8,193,267,193.4,267,193.7z M224.9,236.2
				c-2.4,0.1-4.1,0.5-5.4,1.3c-1.3,0.8-2.4,1.9-3.4,3.1c-2.4,2.9-4,5.4-5,7.4c-1,2.1-1.5,3.6-1.5,4.6c0,0.3,0.1,0.5,0.4,0.6
				c0.2,0.1,0.4,0.2,0.6,0.2c0.4,0,1.2-0.5,2.4-1.4c1.1-0.9,2.4-2.2,3.8-3.7c1.4-1.6,2.8-3.4,4.3-5.5
				C222.5,240.7,223.8,238.5,224.9,236.2z"/>
			<path class="st0" d="M221.7,261.3c-1.8,0-3.2-0.5-4.1-1.5c-0.9-1-1.3-2.3-1.3-3.8c0-1.5,0.3-3.2,0.9-4.9c0.3-0.9,0.7-1.8,1.1-2.8
				c-0.7,0.8-1.4,1.6-2.1,2.3c-1.3,1.4-2.5,2.6-3.5,3.4c-1,0.8-1.9,1.4-2.7,1.8c-0.8,0.4-1.5,0.6-2.1,0.6c-1.1,0-1.8-0.3-2.2-0.9
				c-0.4-0.5-0.5-1.2-0.5-2.1c0-0.6,0.2-1.4,0.5-2.3c0.3-1,0.8-1.9,1.3-2.7c2.3-3.7,4.9-6.8,7.7-9.2c2.8-2.3,6.3-3.9,10.4-4.7
				c3-5.3,5.8-9.8,8.4-13.8c2.8-4.2,5.8-8.3,8.9-12.2c2.6-3.3,5.3-6.3,8-8.8c2.6-2.6,5.4-4.5,8.2-5.8c2.2-1,4.1-1.5,5.7-1.5
				c0.8,0,1.4,0.1,2,0.3c0.6,0.2,1,0.7,1,1.3c0,0.5-0.2,1-0.7,1.5c-0.3,0.3-0.5,0.7-0.6,1.3c-0.3,0.9-0.8,1.1-1.1,1.1
				c-0.3,0-0.6-0.1-0.8-0.2c-0.1-0.1-0.3-0.2-0.5-0.2l-0.1-0.1c-0.3-0.1-0.6-0.2-0.9-0.3c-0.4-0.1-0.9-0.1-1.6-0.1c-1,0-2,0.1-3,0.4
				c-1,0.3-1.9,0.6-2.7,1.2c-1.7,1.1-3.5,2.7-5.5,4.7c-2,2.1-3.9,4.3-5.5,6.6c-4.1,5.9-7.8,11.5-10.9,16.6
				c-3.1,5.1-5.7,9.8-7.8,13.8c-2.1,4-3.6,7.5-4.7,10.4c-1,2.8-1.5,4.9-1.5,6.2c0,1,0.2,1.7,0.6,2.3c0.4,0.5,1,0.8,1.8,0.8
				c1.6,0,3.1-0.5,4.5-1.5c1.4-1,2.9-2.3,4.2-3.8c1.3-1.6,2.6-3.3,3.6-5.1c1.1-1.9,2.1-3.7,2.9-5.3c0.2-0.5,0.7-0.7,1.1-0.6
				c0.3,0.1,0.5,0.3,0.5,0.4c0.2,0.4-0.1,0.8-0.3,1.1c-1.1,2.2-2.3,4.3-3.5,6.3c-1.3,2-2.6,3.8-4,5.3c-1.4,1.6-2.9,2.8-4.5,3.7
				C224.9,260.8,223.3,261.3,221.7,261.3z M222.9,241.2l-2,4c-1.2,2.4-2.1,4.5-2.7,6.2c-0.6,1.6-0.9,3.2-0.9,4.6
				c0,1.3,0.4,2.4,1.1,3.1c0.5,0.5,1.1,0.9,1.9,1c-0.5-0.2-0.8-0.5-1.1-0.9c-0.5-0.8-0.8-1.7-0.8-2.9c0-1.4,0.5-3.6,1.6-6.5
				c1.1-2.9,2.7-6.4,4.7-10.5c2.1-4.1,4.7-8.8,7.8-13.9c3.1-5.1,6.8-10.7,10.9-16.7c0.1-0.1,0.1-0.2,0.2-0.3
				c-0.1,0.1-0.2,0.2-0.3,0.4c-3.1,3.9-6.1,7.9-8.9,12.1c-2.7,4-5.4,8.6-8.5,14l-0.1,0.2l-0.2,0c-0.9,0.2-1.7,0.4-2.6,0.6
				c0.5-0.1,1.1-0.1,1.7-0.1l0.8,0l-0.3,0.7c-1,2-2.1,4-3.3,5.9L222.9,241.2z M217.9,238c-0.8,0.5-1.6,1.1-2.4,1.7
				c-2.8,2.3-5.3,5.3-7.5,9c-0.5,0.8-0.9,1.6-1.3,2.5c-0.3,0.8-0.4,1.5-0.4,2c0,0.7,0.1,1.2,0.4,1.5c0.1,0.2,0.4,0.5,1.3,0.5
				c0.5,0,1-0.2,1.7-0.5c0.5-0.2,1.1-0.6,1.7-1c-0.4,0.2-0.7,0.3-0.9,0.3c-0.2,0-0.5-0.1-0.8-0.2c-0.4-0.2-0.6-0.6-0.6-1.1
				c0-1.1,0.5-2.6,1.5-4.8c1-2.1,2.7-4.6,5.1-7.5C216.4,239.5,217.1,238.7,217.9,238z M224,236.7c-1.8,0.1-3.3,0.5-4.3,1.2
				c-1.2,0.8-2.3,1.8-3.2,3c-2.3,2.9-4,5.3-4.9,7.3c-1,2-1.4,3.5-1.4,4.4c0,0.1,0,0.2,0.1,0.2c0.2,0.1,0.3,0.1,0.3,0.1
				c0.1,0,0.5-0.1,2.1-1.3c1.1-0.9,2.3-2.1,3.7-3.7c1.3-1.5,2.7-3.3,4.3-5.5C221.9,240.7,223,238.7,224,236.7z M264.5,193.1
				c-1.5,0-3.2,0.5-5.2,1.4c-1.8,0.9-3.6,2-5.4,3.4c0.3-0.2,0.6-0.4,0.9-0.6c1-0.6,1.9-1,3-1.3c1.2-0.3,2.2-0.4,3.3-0.4
				c0.7,0,1.3,0.1,1.8,0.2c0.4,0.1,0.8,0.2,1.1,0.4l0.1,0c0.3,0.1,0.5,0.2,0.6,0.3c0.1,0.1,0.2,0.1,0.3,0.1c0.1,0,0.2-0.3,0.2-0.3
				c0.1-0.7,0.4-1.3,0.9-1.8c0.3-0.3,0.4-0.5,0.4-0.8c0-0.1,0-0.2-0.3-0.3C265.7,193.2,265.2,193.1,264.5,193.1z"/>
		</g>
		<g>
			<path class="st0" d="M256.8,244.2c-1.1,1.3-2.3,2.6-3.7,4c-1.4,1.4-3,2.6-4.7,3.8s-3.5,2.1-5.3,2.8s-3.6,1.1-5.4,1.1
				c-2.9,0-4.4-1.3-4.4-3.9c0-1.7,0.4-3.6,1.3-5.6c0.9-2,2.1-3.9,3.5-5.6s3-3.1,4.7-4.3c1.7-1.1,3.3-1.7,4.9-1.7
				c0.9,0,1.5,0.1,1.8,0.5c0.3,0.3,0.5,0.7,0.5,1.2c0,0.7-0.2,1.5-0.7,2.4c-0.5,0.9-1.1,1.7-2.1,2.4c-0.9,0.8-2.1,1.4-3.5,1.9
				s-3.1,0.8-5.1,0.8c-0.3,0.6-0.6,1.4-1,2.6c-0.4,1.2-0.6,2.4-0.6,3.7c0,2.5,1.1,3.8,3.4,3.8c1.4,0,2.9-0.3,4.4-1
				c1.5-0.7,3-1.5,4.4-2.6c1.4-1,2.7-2.1,3.9-3.3s2.2-2.3,3-3.4c0.1-0.1,0.3-0.1,0.4-0.1C256.7,243.9,256.8,244,256.8,244.2z
				 M247.1,237c0-0.8-0.4-1.2-1.2-1.2c-0.6,0-1.3,0.2-1.9,0.7c-0.6,0.5-1.3,1.1-1.9,1.8c-0.6,0.7-1.2,1.5-1.8,2.4s-1,1.7-1.4,2.5
				c0.1,0.1,0.3,0.1,0.6,0.1c0.3,0,0.6,0,0.7,0c1.8,0,3.4-0.6,4.7-1.9C246.4,240.2,247.1,238.7,247.1,237z"/>
			<path class="st0" d="M237.7,256.4c-4,0-4.9-2.4-4.9-4.4c0-1.8,0.5-3.7,1.4-5.8c0.9-2,2.1-3.9,3.6-5.7c1.4-1.7,3-3.2,4.8-4.4
				c1.8-1.2,3.5-1.8,5.1-1.8c1,0,1.7,0.2,2.1,0.6c0.5,0.4,0.7,1,0.7,1.6c0,0.8-0.3,1.7-0.8,2.6c-0.5,0.9-1.2,1.8-2.2,2.6
				c-1,0.8-2.2,1.5-3.7,2c-1.4,0.5-3,0.8-5,0.8c-0.2,0.5-0.5,1.3-0.8,2.3c-0.4,1.1-0.5,2.3-0.5,3.5c0,2.2,0.9,3.3,2.9,3.3
				c1.4,0,2.8-0.3,4.2-1c1.6-0.7,3-1.5,4.3-2.5c1.4-1,2.7-2.1,3.9-3.3c1.2-1.3,2.2-2.4,3-3.3c0.3-0.3,0.6-0.4,1-0.3
				c0.3,0.1,0.5,0.4,0.5,0.8v0.2l-0.1,0.1c-1.1,1.3-2.3,2.6-3.8,4.1c-1.4,1.4-3,2.7-4.8,3.9c-1.7,1.2-3.5,2.1-5.4,2.8
				C241.4,256,239.5,256.4,237.7,256.4z M241.6,238.1c-1.1,0.9-2.2,1.9-3.1,3.1c-1.4,1.7-2.5,3.5-3.4,5.4c-0.9,1.9-1.3,3.7-1.3,5.4
				c0,2.3,1.2,3.4,3.9,3.4c1.5,0,3.1-0.3,4.8-0.9c-0.7,0.1-1.3,0.2-2,0.2c-1.8,0-3.9-0.7-3.9-4.3c0-1.3,0.2-2.6,0.6-3.8
				c0.4-1.3,0.7-2.2,1.1-2.7l0.1-0.3h0.3c0,0,0.1,0,0.1,0l-0.4-0.2l0.2-0.5c0.4-0.8,0.9-1.7,1.4-2.6
				C240.4,239.7,241,238.9,241.6,238.1z M256.8,244.2h-0.5H256.8z M239.7,242.9c0.3,0,0.5,0,0.7,0c1.7,0,3.1-0.6,4.4-1.8
				c1.2-1.2,1.9-2.6,1.9-4.2c0-0.5-0.2-0.7-0.7-0.7c-0.5,0-1.1,0.2-1.6,0.6c-0.7,0.5-1.3,1.1-1.8,1.7c-0.7,0.8-1.2,1.6-1.7,2.4
				C240.4,241.6,240,242.3,239.7,242.9z M246.7,235.5c0.5,0.3,0.8,0.8,0.8,1.5c0,1.8-0.7,3.5-2.2,4.9c-0.2,0.1-0.3,0.3-0.5,0.4
				c0.7-0.4,1.4-0.8,1.9-1.2c0.9-0.7,1.5-1.5,2-2.3c0.4-0.8,0.6-1.5,0.6-2.2c0-0.3-0.1-0.6-0.4-0.8c-0.2-0.2-0.7-0.3-1.5-0.3
				C247.3,235.4,247,235.4,246.7,235.5z"/>
		</g>
	</g>
	<g>
		<path class="st0" d="M287.9,137.9c0-29-23.5-52.5-52.5-52.5s-52.5,23.5-52.5,52.5c0,17.1,8.2,32.3,20.8,41.9
			c10.9,12.8,30.8,13.4,32.3,19c0,0.1,0,0.1,0,0.2c0,0,0-0.1,0-0.1c0,0,0,0.1,0,0.1c0-0.1,0-0.1,0-0.2c1.5-5.7,22.3-6.2,33.1-19.9
			c0,0,0-0.1,0-0.1c0.1-0.3,0.1-0.5,0.1-0.8C280.7,168.4,287.9,154,287.9,137.9z"/>
		<path class="st1" d="M284.2,89.6c-0.1-1.4-1.6-2.9-3.3-4.1c-2.5-1.8-5.4-3.1-5.4-3.1c-19.4-5-26.1,17.1-28.8,15.1
			c-2.5-1.9-9.4-2.3-10.5-2.3l0,0c0,0,0,0-0.1,0c-0.1,0-0.1,0-0.1,0l0,0c-1.1,0.1-8,0.5-10.5,2.3c-2.7,2-9.4-20.1-28.8-15.1
			c0,0-2.9,1.3-5.4,3.1c-1.7,1.2-3.2,2.7-3.3,4.1c0,0,7-5.2,6,0s-0.3,22.9,3.7,26.6c0,0-3.4,8-2.4,14.7c0,0,5-12.1,6-5.7
			c1,6.4,2,13.4-1.7,25.1c-3.7,11.7-2.1,18.3-0.7,21.8c1,2.5,2.3,4.7,3.8,6.7c-4.3-21,23.8-31.4,23.8-31.4l9.3-7.1v-0.1l0,0l0,0v0.1
			l9.3,7.1c0,0,28.1,10.5,23.8,31.4c0,0,0,0.1,0,0.1c1.6-2,2.9-4.2,3.9-6.8c1.4-3.4,3-10.1-0.7-21.8c-3.7-11.7-2.7-18.8-1.7-25.1
			c1-6.4,6,5.7,6,5.7c1-6.7-2.4-14.7-2.4-14.7c4-3.7,4.7-21.4,3.7-26.6C277.1,84.4,284.2,89.6,284.2,89.6z"/>
		<path class="st2" d="M245.4,147.4l-9.3-7.1v-0.1l0,0l0,0v0.1l-9.3,7.1c0,0-28.1,10.5-23.8,31.4c10.7,13.8,31.6,14.3,33.2,20
			c0,0.1,0,0.1,0,0.2c0,0,0-0.1,0-0.1c0,0,0,0.1,0,0.1c0-0.1,0-0.1,0-0.2c1.5-5.7,22.3-6.2,33.1-19.9c0,0,0-0.1,0-0.1
			C273.5,157.8,245.4,147.4,245.4,147.4z"/>
		<path class="st3" d="M236.1,140.3l0-8.5c0,0-8-5.1-13.8-1.5c-5.8,3.6-13.6,7.4-12.9,14.6c0.7,7.1,1.4,5.9-1.7,11.6
			c-3.1,5.7-3.4,9.8-3.4,9.8c5.6-12.6,22.5-18.9,22.5-18.9L236.1,140.3L236.1,140.3L236.1,140.3L236.1,140.3z"/>
		<path class="st3" d="M236.1,140.3l0-8.5c0,0,8-5.1,13.8-1.5c5.8,3.6,13.6,7.4,12.9,14.6c-0.7,7.1-1.4,5.9,1.7,11.6
			c3.1,5.7,3.4,9.8,3.4,9.8c-5.6-12.6-22.5-18.9-22.5-18.9L236.1,140.3L236.1,140.3L236.1,140.3L236.1,140.3z"/>
		<g>
			<path class="st2" d="M216.8,126.7c0.4,2.8,2.7,5,5.6,5c2.4,0,4.5-1.6,5.3-3.8C224.8,123.8,219.4,125.6,216.8,126.7z"/>
			<path class="st1" d="M224.3,127.5c-0.9,0-1.6-0.3-1.6-0.6s0.7-0.6,1.6-0.6c0.1,0,0.2,0,0.4,0c-0.5-0.8-1.4-1.2-2.4-1.2
				c-1.6,0-3,1.3-3,3c0,1.6,1.3,3,3,3c1.7,0,3-1.3,3-3c0-0.2,0-0.5-0.1-0.7C224.9,127.5,224.6,127.5,224.3,127.5z"/>
			<path class="st4" d="M228.6,130.2c-0.2,0-0.4-0.1-0.5-0.3c-0.7-1.9-1.9-3.1-3.5-3.7c-3.8-1.3-8.9,1.6-8.9,1.7
				c-0.2,0.1-0.5,0.1-0.7-0.2c-0.1-0.2-0.1-0.5,0.2-0.7c0.2-0.1,5.5-3.2,9.8-1.7c1.9,0.7,3.2,2.1,4.1,4.3c0.1,0.3,0,0.5-0.3,0.6
				C228.7,130.2,228.6,130.2,228.6,130.2z"/>
		</g>
		<g>
			<path class="st2" d="M255,126.7c-0.4,2.8-2.7,5-5.6,5c-2.4,0-4.5-1.6-5.3-3.8C247,123.8,252.5,125.6,255,126.7z"/>
			<path class="st1" d="M247.5,127.5c0.9,0,1.6-0.3,1.6-0.6s-0.7-0.6-1.6-0.6c-0.1,0-0.2,0-0.4,0c0.5-0.8,1.4-1.2,2.4-1.2
				c1.6,0,3,1.3,3,3c0,1.6-1.3,3-3,3c-1.6,0-3-1.3-3-3c0-0.2,0-0.5,0.1-0.7C246.9,127.5,247.2,127.5,247.5,127.5z"/>
			<path class="st4" d="M243.3,130.2c-0.1,0-0.1,0-0.2,0c-0.3-0.1-0.4-0.4-0.3-0.6c0.8-2.2,2.2-3.6,4.1-4.3c4.2-1.5,9.6,1.6,9.8,1.7
				c0.2,0.1,0.3,0.4,0.2,0.7c-0.1,0.2-0.4,0.3-0.7,0.2c-0.1,0-5.1-3-8.9-1.7c-1.6,0.6-2.7,1.8-3.5,3.7
				C243.7,130.1,243.5,130.2,243.3,130.2z"/>
		</g>
		<path class="st1" d="M223.1,95.8c0,0,1.2-5.7,0-10.3c0,0,7.8,11.7,4.6,13.4c-3.2,1.7-7.5,0-7.5,0L223.1,95.8z"/>
		<path class="st1" d="M249,95.8c0,0-1.2-5.7,0-10.3c0,0-7.8,11.7-4.6,13.4c3.2,1.7,7.5,0,7.5,0L249,95.8z"/>
		<ellipse class="st1" cx="236.4" cy="145" rx="7.8" ry="3.1"/>
		<path class="st2" d="M248.5,139.1c-1.7-2.4-6.5-5.4-7.6-7.2c-2-3.5-3.4-6.3,3.1-18.4s-7.8-11.6-7.8-11.6s-14.2-0.5-7.8,11.6
			s5,14.9,3.1,18.4c-1,1.8-5.9,4.8-7.6,7.2c-0.8,1.1-0.8,2.8-0.7,4.4c0.3,2.5,2.3,4.4,4.9,4.5c0,0,0.1,0,0.1,0c3.3,0.1,8-1.5,8-1.5
			s4.7,1.6,8,1.5c0,0,0.1,0,0.1,0c2.5-0.1,4.6-2,4.9-4.5C249.3,141.9,249.2,140.2,248.5,139.1z"/>
		<ellipse class="st1" cx="236.1" cy="140.3" rx="5.4" ry="3.4"/>
	</g>
	<g>
		<path class="st1" d="M130.5,221.7l-0.2,7.2h-20.8v-0.8h0.7c1.1,0,1.8-0.1,2.2-0.4c0.4-0.3,0.7-0.7,0.8-1.2
			c0.1-0.6,0.2-1.9,0.2-3.9v-12c0-1.9-0.1-3.2-0.2-3.8c-0.1-0.6-0.4-1-0.7-1.2c-0.4-0.2-1.2-0.3-2.4-0.3h-0.5v-0.8h11.8v0.8h-1.1
			c-1.2,0-2,0.1-2.4,0.3c-0.4,0.2-0.6,0.6-0.8,1.1c-0.1,0.5-0.2,1.8-0.2,3.9v12.8c0,1.8,0.1,2.9,0.1,3.3c0.1,0.4,0.4,0.8,0.8,1
			s1.4,0.4,2.8,0.4h1.9c1.5,0,2.6-0.1,3.4-0.4c0.7-0.3,1.4-0.9,2.1-1.7c0.6-0.9,1.3-2.3,1.8-4.2L130.5,221.7L130.5,221.7z"/>
		<path class="st1" d="M153.7,221.3h0.9l-0.5,7.6h-20.3v-0.8h0.5c1.2,0,2-0.2,2.4-0.5c0.4-0.3,0.6-0.7,0.7-1.2
			c0.1-0.5,0.1-1.8,0.1-3.8v-12c0-1.9-0.1-3.1-0.1-3.7c-0.1-0.6-0.3-1-0.7-1.2c-0.4-0.2-1.1-0.4-2.3-0.4v-0.8h17.5l0.6,6.1h-0.9
			c-0.4-1.7-0.9-2.9-1.4-3.6c-0.6-0.7-1.2-1.2-2-1.4c-0.8-0.2-2-0.3-3.7-0.3h-3.4v10.3h2.6c1.2,0,2-0.1,2.5-0.3
			c0.5-0.2,0.8-0.5,0.9-0.9c0.1-0.4,0.2-1.2,0.2-2.4h0.9v8.4h-0.9c0-1.4-0.1-2.3-0.4-2.7c-0.2-0.5-0.6-0.8-1-0.9
			c-0.4-0.1-1.2-0.2-2.2-0.2h-2.7v5.8c0,2.9,0.2,4.6,0.6,5.1s1.4,0.8,3,0.8h1.8c1.3,0,2.4-0.2,3.2-0.5c0.8-0.3,1.6-1,2.4-2
			C152.6,224.5,153.2,223.1,153.7,221.3z"/>
		<path class="st1" d="M169.2,204.6l4-0.2c3.4-0.2,5.6-0.3,6.8-0.3c3.6,0,6.5,0.6,8.5,1.7s3.6,2.6,4.6,4.5c1,1.9,1.5,4.1,1.5,6.6
			c0,1.8-0.3,3.4-0.8,4.9s-1.3,2.7-2.2,3.7c-0.9,1-2,1.7-3.3,2.2c-1.2,0.5-2.4,0.8-3.6,1c-1.1,0.1-2.7,0.2-4.7,0.2h-10.9v-0.8h1
			c1.1,0,1.8-0.1,2.2-0.4c0.4-0.3,0.7-0.7,0.8-1.2c0.1-0.6,0.2-1.9,0.2-3.9v-11.8c0-1.9-0.1-3.2-0.2-3.8c-0.1-0.6-0.4-1-0.7-1.2
			c-0.4-0.2-1.2-0.3-2.4-0.3h-0.7L169.2,204.6L169.2,204.6z M176.8,205.1v16.4c0,2.4,0,4,0.1,4.7c0.1,0.7,0.4,1.2,0.8,1.5
			c0.4,0.3,1.4,0.4,2.9,0.4c2.1,0,3.9-0.3,5.3-0.9c1.4-0.6,2.5-1.7,3.4-3.5s1.4-3.9,1.4-6.6c0-2.1-0.3-3.9-0.8-5.6
			c-0.5-1.6-1.3-2.9-2.3-4c-1-1-2.1-1.7-3.3-2.1c-1.2-0.4-2.8-0.6-4.7-0.6C178.6,205,177.7,205,176.8,205.1z"/>
		<path class="st1" d="M200.1,216.5c0-3.8,1.3-6.8,3.8-9.1c2.5-2.3,5.7-3.4,9.5-3.4c3.8,0,7,1.1,9.6,3.4c2.6,2.3,3.9,5.4,3.9,9.3
			c0,3.8-1.2,6.9-3.7,9.2c-2.4,2.4-5.7,3.5-9.7,3.5c-3.9,0-7.1-1.2-9.6-3.5C201.3,223.5,200.1,220.4,200.1,216.5z M204.3,216.6
			c0,3.9,0.8,6.9,2.4,8.9c1.6,2,3.9,3,7.1,3c2.8,0,4.9-1,6.6-3c1.6-2,2.4-4.9,2.4-8.9c0-3.8-0.8-6.7-2.4-8.8c-1.6-2-3.9-3.1-6.9-3.1
			c-3,0-5.2,1-6.8,3C205,209.8,204.3,212.7,204.3,216.6z"/>
		<path class="st1" d="M247.6,224.7l8.9-20.3h7.5v0.8h-0.9c-1.2,0-2,0.1-2.4,0.3s-0.6,0.6-0.8,1.1s-0.2,1.8-0.2,3.9v12
			c0,1.9,0.1,3.2,0.1,3.8c0.1,0.6,0.3,1,0.7,1.3c0.4,0.3,1.1,0.4,2.3,0.4h1.1v0.8h-11.7v-0.8h0.9c1,0,1.8-0.1,2.2-0.4
			c0.4-0.3,0.7-0.7,0.8-1.2c0.1-0.6,0.2-1.9,0.2-3.9v-15.6l-9.7,22h-0.9l-9.8-22v14.4c0,2,0.1,3.3,0.2,4c0.1,0.7,0.5,1.3,1.1,1.9
			c0.6,0.5,1.5,0.8,2.6,0.9v0.8h-8.8v-0.8c1.1-0.1,1.9-0.4,2.6-0.9c0.6-0.5,1.1-1.1,1.2-1.9s0.2-2.1,0.2-4.2v-10.7
			c0-1.9-0.1-3.2-0.2-3.8c-0.1-0.6-0.4-1-0.7-1.2c-0.4-0.2-1.2-0.3-2.4-0.3h-0.7v-0.8h7.5L247.6,224.7z"/>
		<path class="st1" d="M282.4,219.9h-9.3l-0.6,1.6c-0.9,2.3-1.4,3.7-1.4,4.4c0,0.7,0.3,1.3,0.8,1.7c0.5,0.4,1.1,0.6,1.9,0.6v0.8
			h-7.3v-0.8c1.1-0.2,1.9-0.6,2.4-1.1c0.5-0.6,1.2-1.9,1.9-3.8c0.1-0.2,0.4-0.9,0.9-2.1l7.1-17h0.7l8.2,19.5l1.1,2.6
			c0.3,0.6,0.6,1,1,1.4c0.4,0.3,1.1,0.5,1.9,0.6v0.8h-9.6v-0.8c1.2,0,2-0.1,2.4-0.3c0.4-0.2,0.6-0.5,0.6-1c0-0.3-0.3-1.1-0.8-2.4
			L282.4,219.9z M282.1,219.1l-4.3-10.4l-4.3,10.4H282.1z"/>
		<path class="st1" d="M294.2,205.2v-0.8h11.2v0.8h-0.5c-1.2,0-2,0.1-2.4,0.3c-0.4,0.2-0.6,0.6-0.8,1.1s-0.2,1.8-0.2,3.9v12
			c0,1.9,0,3.2,0.1,3.8c0.1,0.6,0.3,1,0.7,1.3c0.4,0.3,1.1,0.4,2.3,0.4h0.7v0.8h-11.2v-0.8h0.7c1.1,0,1.8-0.1,2.2-0.4
			c0.4-0.3,0.7-0.7,0.8-1.2c0.1-0.6,0.2-1.9,0.2-3.9v-12c0-1.9-0.1-3.2-0.2-3.8c-0.1-0.6-0.4-1-0.7-1.2c-0.4-0.2-1.2-0.3-2.4-0.3
			L294.2,205.2L294.2,205.2z"/>
		<path class="st1" d="M330.8,229.5l-17.4-23v17c0,1.4,0.1,2.3,0.2,2.8c0.1,0.4,0.5,0.9,1.2,1.2s1.6,0.6,2.9,0.6v0.8h-9.1v-0.8
			c1.2-0.1,2.1-0.3,2.7-0.6c0.6-0.4,1-0.7,1.1-1.1c0.1-0.4,0.2-1.3,0.2-2.8v-13c0-1.9-0.1-3.1-0.3-3.8c-0.2-0.6-0.4-1.1-0.8-1.2
			c-0.4-0.2-1.2-0.3-2.5-0.3v-0.8h7.2l14.5,19.2v-14.7c0-1.1-0.1-1.9-0.3-2.3c-0.2-0.4-0.7-0.8-1.4-1c-0.7-0.3-1.5-0.4-2.5-0.4v-0.8
			h8.9v0.8c-1,0.1-1.9,0.3-2.4,0.6c-0.6,0.3-1,0.7-1.1,1.1c-0.2,0.4-0.2,1.2-0.2,2.2v20.3L330.8,229.5L330.8,229.5z"/>
		<path class="st1" d="M358.7,221.3h0.9l-0.5,7.6h-20.3v-0.8h0.5c1.2,0,2-0.2,2.4-0.5c0.4-0.3,0.6-0.7,0.7-1.2
			c0.1-0.5,0.1-1.8,0.1-3.8v-12c0-1.9-0.1-3.1-0.1-3.7c-0.1-0.6-0.3-1-0.7-1.2s-1.1-0.4-2.3-0.4v-0.8h17.5l0.6,6.1h-0.9
			c-0.4-1.7-0.9-2.9-1.4-3.6c-0.6-0.7-1.2-1.2-2-1.4c-0.8-0.2-2-0.3-3.7-0.3h-3.4v10.3h2.6c1.2,0,2-0.1,2.5-0.3
			c0.5-0.2,0.8-0.5,0.9-0.9s0.2-1.2,0.2-2.4h0.9v8.4h-0.9c0-1.4-0.1-2.3-0.4-2.7c-0.2-0.5-0.6-0.8-1-0.9c-0.4-0.1-1.2-0.2-2.2-0.2
			h-2.7v5.8c0,2.9,0.2,4.6,0.6,5.1c0.4,0.5,1.4,0.8,3,0.8h1.8c1.3,0,2.4-0.2,3.2-0.5c0.8-0.3,1.6-1,2.4-2
			C357.6,224.5,358.2,223.1,358.7,221.3z"/>
		<path class="st1" d="M129.6,269.1l8.9-20.3h7.5v0.8h-0.9c-1.2,0-2,0.1-2.4,0.3c-0.4,0.2-0.6,0.6-0.8,1.1s-0.2,1.8-0.2,3.9v12
			c0,1.9,0.1,3.2,0.1,3.8c0.1,0.6,0.3,1,0.7,1.3c0.4,0.3,1.1,0.4,2.3,0.4h1.1v0.8h-11.7v-0.8h0.9c1,0,1.8-0.1,2.2-0.4
			s0.7-0.7,0.8-1.2c0.1-0.6,0.2-1.9,0.2-3.9v-15.6l-9.7,22h-0.9l-9.8-22v14.4c0,2,0.1,3.3,0.2,4c0.1,0.7,0.5,1.3,1.1,1.9
			c0.6,0.5,1.5,0.8,2.6,0.9v0.8h-8.8v-0.8c1.1-0.1,1.9-0.4,2.6-0.9c0.6-0.5,1.1-1.1,1.2-1.9c0.1-0.7,0.2-2.1,0.2-4.2v-10.7
			c0-1.9-0.1-3.2-0.2-3.8s-0.4-1-0.7-1.2c-0.4-0.2-1.2-0.3-2.4-0.3h-0.7v-0.8h7.5L129.6,269.1z"/>
		<path class="st1" d="M150.4,260.9c0-3.8,1.3-6.8,3.8-9.1c2.5-2.3,5.7-3.4,9.5-3.4c3.8,0,7,1.1,9.6,3.4c2.6,2.3,3.9,5.4,3.9,9.3
			c0,3.8-1.2,6.9-3.7,9.2c-2.4,2.4-5.7,3.5-9.7,3.5c-3.9,0-7.1-1.2-9.6-3.5C151.6,267.9,150.4,264.8,150.4,260.9z M154.5,261.1
			c0,3.9,0.8,6.9,2.4,8.9c1.6,2,3.9,3,7.1,3c2.8,0,4.9-1,6.6-3s2.4-4.9,2.4-8.9c0-3.8-0.8-6.7-2.4-8.8c-1.6-2-3.9-3.1-6.9-3.1
			c-3,0-5.2,1-6.8,3C155.3,254.2,154.5,257.2,154.5,261.1z"/>
		<path class="st1" d="M203.4,273.9l-17.4-23v17c0,1.4,0.1,2.3,0.2,2.8c0.1,0.4,0.5,0.9,1.2,1.2s1.6,0.6,2.9,0.6v0.8h-9.1v-0.8
			c1.2-0.1,2.1-0.3,2.7-0.6s1-0.7,1.1-1.1s0.2-1.3,0.2-2.8v-13c0-1.9-0.1-3.1-0.3-3.8c-0.2-0.6-0.4-1.1-0.8-1.2
			c-0.4-0.2-1.2-0.3-2.5-0.3v-0.8h7.2l14.5,19.2v-14.7c0-1.1-0.1-1.9-0.3-2.3c-0.2-0.4-0.7-0.8-1.4-1c-0.7-0.3-1.5-0.4-2.5-0.4v-0.8
			h8.9v0.8c-1,0.1-1.9,0.3-2.4,0.6c-0.6,0.3-1,0.7-1.1,1.1c-0.2,0.4-0.2,1.2-0.2,2.2v20.3L203.4,273.9L203.4,273.9z"/>
		<path class="st1" d="M211.9,254.7h-0.8l0.1-5.9H235l0.1,5.9h-0.8c-0.3-1.6-0.6-2.8-1.1-3.5c-0.5-0.7-1-1.1-1.6-1.3
			s-1.5-0.2-2.8-0.2h-3.9V267c0,1.9,0,3.2,0.1,3.8c0.1,0.6,0.3,1.1,0.7,1.3s1.1,0.4,2.2,0.4h1.2v0.8h-12.2v-0.8h1.3
			c1.1,0,1.8-0.1,2.2-0.4s0.7-0.7,0.8-1.2c0.1-0.6,0.2-1.9,0.2-3.9v-17.3h-3.6c-1.6,0-2.6,0.1-3.2,0.2c-0.5,0.1-1.1,0.6-1.5,1.4
			C212.5,252,212.1,253.2,211.9,254.7z"/>
		<path class="st1" d="M238.5,249l4-0.2c3.4-0.2,5.6-0.3,6.8-0.3c3.6,0,6.5,0.6,8.5,1.7c2,1.1,3.6,2.6,4.6,4.5
			c1,1.9,1.5,4.1,1.5,6.6c0,1.8-0.3,3.4-0.8,4.9c-0.5,1.5-1.3,2.7-2.2,3.7c-0.9,1-2,1.7-3.3,2.2c-1.2,0.5-2.4,0.8-3.6,1
			c-1.1,0.1-2.7,0.2-4.7,0.2h-10.9v-0.8h1c1.1,0,1.8-0.1,2.2-0.4s0.7-0.7,0.8-1.2s0.2-1.9,0.2-3.9v-11.8c0-1.9-0.1-3.2-0.2-3.8
			c-0.1-0.6-0.4-1-0.7-1.2c-0.4-0.2-1.2-0.3-2.4-0.3h-0.7L238.5,249L238.5,249z M246.1,249.5v16.4c0,2.4,0,4,0.1,4.7
			c0.1,0.7,0.4,1.2,0.8,1.5c0.4,0.3,1.4,0.4,2.9,0.4c2.1,0,3.9-0.3,5.3-0.9c1.4-0.6,2.5-1.7,3.4-3.5c0.9-1.7,1.4-3.9,1.4-6.6
			c0-2.1-0.3-3.9-0.8-5.6c-0.5-1.6-1.3-2.9-2.3-4c-1-1-2.1-1.7-3.3-2.1c-1.2-0.4-2.8-0.6-4.7-0.6C248,249.4,247,249.5,246.1,249.5z"
			/>
		<path class="st1" d="M288.7,265.7h0.9l-0.5,7.6h-20.3v-0.8h0.5c1.2,0,2-0.2,2.4-0.5c0.4-0.3,0.6-0.7,0.7-1.2
			c0.1-0.5,0.1-1.8,0.1-3.8v-12c0-1.9-0.1-3.1-0.1-3.7c-0.1-0.6-0.3-1-0.7-1.2c-0.4-0.2-1.1-0.4-2.3-0.4v-0.8h17.5l0.6,6.1h-0.9
			c-0.4-1.7-0.9-2.9-1.4-3.6c-0.6-0.7-1.2-1.2-2-1.4c-0.8-0.2-2-0.3-3.7-0.3h-3.4V260h2.6c1.2,0,2-0.1,2.5-0.3
			c0.5-0.2,0.8-0.5,0.9-0.9c0.1-0.4,0.2-1.2,0.2-2.4h0.9v8.4h-0.9c0-1.4-0.1-2.3-0.4-2.7c-0.2-0.5-0.6-0.8-1-0.9
			c-0.4-0.1-1.2-0.2-2.2-0.2h-2.7v5.8c0,2.9,0.2,4.6,0.6,5.1c0.4,0.5,1.4,0.8,3,0.8h1.8c1.3,0,2.4-0.2,3.2-0.5c0.8-0.3,1.6-1,2.4-2
			C287.6,268.9,288.2,267.5,288.7,265.7z"/>
		<path class="st1" d="M315.2,273.9l-17.4-23v17c0,1.4,0.1,2.3,0.2,2.8c0.1,0.4,0.5,0.9,1.2,1.2s1.6,0.6,2.9,0.6v0.8H293v-0.8
			c1.2-0.1,2.1-0.3,2.7-0.6c0.6-0.4,1-0.7,1.1-1.1c0.1-0.4,0.2-1.3,0.2-2.8v-13c0-1.9-0.1-3.1-0.3-3.8c-0.2-0.6-0.4-1.1-0.8-1.2
			c-0.4-0.2-1.2-0.3-2.5-0.3v-0.8h7.2l14.5,19.2v-14.7c0-1.1-0.1-1.9-0.3-2.3s-0.7-0.8-1.4-1c-0.7-0.3-1.5-0.4-2.5-0.4v-0.8h8.9v0.8
			c-1,0.1-1.9,0.3-2.4,0.6c-0.6,0.3-1,0.7-1.1,1.1c-0.2,0.4-0.2,1.2-0.2,2.2v20.3L315.2,273.9L315.2,273.9z"/>
		<path class="st1" d="M322.8,249.7v-0.8H334v0.8h-0.5c-1.2,0-2,0.1-2.4,0.3c-0.4,0.2-0.6,0.6-0.8,1.1s-0.2,1.8-0.2,3.9v12
			c0,1.9,0,3.2,0.1,3.8c0.1,0.6,0.3,1,0.7,1.3s1.1,0.4,2.3,0.4h0.7v0.8h-11.2v-0.8h0.7c1.1,0,1.8-0.1,2.2-0.4s0.7-0.7,0.8-1.2
			c0.1-0.6,0.2-1.9,0.2-3.9v-12c0-1.9-0.1-3.2-0.2-3.8c-0.1-0.6-0.4-1-0.7-1.2c-0.4-0.2-1.2-0.3-2.4-0.3L322.8,249.7L322.8,249.7z"
			/>
		<path class="st1" d="M338.8,273.1v-7.9h0.9c1,5.1,3.5,7.7,7.3,7.7c1.7,0,3.1-0.5,4-1.5c0.9-1,1.4-2.1,1.4-3.3s-0.4-2.3-1.2-3.1
			c-0.8-0.8-2.4-1.7-4.6-2.6c-2-0.9-3.4-1.6-4.4-2.2c-1-0.6-1.8-1.5-2.3-2.5s-0.8-2.1-0.8-3.2c0-1.7,0.6-3.2,1.8-4.4
			c1.2-1.2,2.7-1.7,4.6-1.7c1,0,2,0.2,2.9,0.5c0.9,0.3,1.9,1,2.8,2.1c0.6-0.7,0.9-1.4,0.9-2.1h0.8v6.4h-0.8
			c-0.5-1.9-1.3-3.3-2.4-4.4c-1.2-1.1-2.5-1.6-4-1.6c-1.5,0-2.5,0.4-3.2,1.2c-0.7,0.8-1,1.6-1,2.6c0,1.1,0.4,2.1,1.3,2.9
			c0.9,0.8,2.4,1.7,4.6,2.7c2.1,0.9,3.6,1.7,4.6,2.3c1,0.6,1.7,1.4,2.3,2.4c0.6,1,0.9,2.2,0.9,3.5c0,2.1-0.7,3.8-2.1,5.1
			c-1.4,1.3-3.3,2-5.6,2c-2.7,0-4.9-1-6.7-3.1c-0.4,0.6-0.7,1.4-0.9,2.4L338.8,273.1L338.8,273.1z"/>
	</g>
</g>
</svg>
