<?xml version="1.0" encoding="utf-8"?>
<svg version="1.1" id="Calque_11" xmlns="http://www.w3.org/2000/svg" xmlns:xlink="http://www.w3.org/1999/xlink" x="0px" y="0px"
	 viewBox="0 0 127.6 127.6" style="enable-background:new 0 0 127.6 127.6;" xml:space="preserve">
<style>
	.st0{fill:#FCDC74;}
	.st1{fill:#29306F;}
	.st2{fill:#FFFFFF;}
	.st3{fill:#F6A76C;}
	.st4{fill:#FDFDFD;}
</style>
<g>
	<g>
		<path class="st0" d="M116.3,61.4c0-29-23.5-52.5-52.5-52.5S11.3,32.4,11.3,61.4c0,17.1,8.2,32.3,20.8,41.9
			c10.9,12.8,30.8,13.4,32.3,19c0,0.1,0,0.1,0,0.2v-0.1v0.1c0-0.1,0-0.1,0-0.2c1.5-5.7,22.3-6.2,33.1-19.9v-0.1
			c0.1-0.3,0.1-0.5,0.1-0.8C109.1,91.8,116.3,77.4,116.3,61.4z"/>
		<path class="st1" d="M112.5,13c-0.1-1.4-1.6-2.9-3.3-4.1c-2.5-1.8-5.4-3.1-5.4-3.1C84.4,0.8,77.7,22.9,75,20.9
			c-2.5-1.9-9.4-2.3-10.5-2.3l0,0c0,0,0,0-0.1,0s-0.1,0-0.1,0l0,0c-1.1,0.1-8,0.5-10.5,2.3c-2.7,2-9.4-20.1-28.8-15.1
			c0,0-2.9,1.3-5.4,3.1c-1.7,1.2-3.2,2.7-3.3,4.1c0,0,7-5.2,6,0S22,35.9,26,39.6c0,0-3.4,8-2.4,14.7c0,0,5-12.1,6-5.7
			s2,13.4-1.7,25.1c-3.4,11.8-1.8,18.4-0.4,21.9c1,2.5,2.3,4.7,3.8,6.7c-4.3-21,23.8-31.4,23.8-31.4l9.3-7.1v-0.1l0,0l0,0v0.1
			l9.3,7.1c0,0,28.1,10.5,23.8,31.4v0.1c1.6-2,2.9-4.2,3.9-6.8c1.4-3.4,3-10.1-0.7-21.8S98,55,99,48.7c1-6.4,6,5.7,6,5.7
			c1-6.7-2.4-14.7-2.4-14.7c4-3.7,4.7-21.4,3.7-26.6C105.5,7.8,112.5,13,112.5,13z"/>
		<path class="st2" d="M73.8,70.8l-9.3-7.1v-0.1l0,0l0,0v0.1l-9.3,7.1c0,0-28.1,10.5-23.8,31.4c10.7,13.8,31.6,14.3,33.2,20
			c0,0.1,0,0.1,0,0.2v-0.1v0.1c0-0.1,0-0.1,0-0.2c1.5-5.7,22.3-6.2,33.1-19.9v-0.1C101.9,81.3,73.8,70.8,73.8,70.8z"/>
		<path class="st3" d="M64.5,63.7v-8.5c0,0-8-5.1-13.8-1.5s-13.6,7.4-12.9,14.6c0.7,7.1,1.4,5.9-1.7,11.6s-3.4,9.8-3.4,9.8
			c5.6-12.6,22.5-18.9,22.5-18.9L64.5,63.7L64.5,63.7L64.5,63.7L64.5,63.7z"/>
		<path class="st3" d="M64.5,63.7v-8.5c0,0,8-5.1,13.8-1.5s13.6,7.4,12.9,14.6c-0.7,7.1-1.4,5.9,1.7,11.6s3.4,9.8,3.4,9.8
			c-5.6-12.6-22.5-18.9-22.5-18.9L64.5,63.7L64.5,63.7L64.5,63.7L64.5,63.7z"/>
		<g>
			<path class="st2" d="M45.2,50.2c0.4,2.8,2.7,5,5.6,5c2.4,0,4.5-1.6,5.3-3.8C53.2,47.2,47.8,49,45.2,50.2z"/>
			<path class="st1" d="M52.7,51c-0.9,0-1.6-0.3-1.6-0.6s0.7-0.6,1.6-0.6c0.1,0,0.2,0,0.4,0c-0.5-0.8-1.4-1.2-2.4-1.2
				c-1.6,0-3,1.3-3,3c0,1.6,1.3,3,3,3s3-1.3,3-3c0-0.2,0-0.5-0.1-0.7C53.3,50.9,53,51,52.7,51z"/>
			<path class="st4" d="M57,53.7c-0.2,0-0.4-0.1-0.5-0.3c-0.7-1.9-1.9-3.1-3.5-3.7c-3.8-1.3-8.9,1.6-8.9,1.7
				c-0.2,0.1-0.5,0.1-0.7-0.2c-0.1-0.2-0.1-0.5,0.2-0.7c0.2-0.1,5.5-3.2,9.8-1.7c1.9,0.7,3.2,2.1,4.1,4.3c0.1,0.3,0,0.5-0.3,0.6
				C57.1,53.6,57,53.7,57,53.7z"/>
		</g>
		<g>
			<path class="st2" d="M83.4,50.2c-0.4,2.8-2.7,5-5.6,5c-2.4,0-4.5-1.6-5.3-3.8C75.4,47.2,80.9,49,83.4,50.2z"/>
			<path class="st1" d="M75.9,51c0.9,0,1.6-0.3,1.6-0.6s-0.7-0.6-1.6-0.6c-0.1,0-0.2,0-0.4,0c0.5-0.8,1.4-1.2,2.4-1.2
				c1.6,0,3,1.3,3,3c0,1.6-1.3,3-3,3c-1.6,0-3-1.3-3-3c0-0.2,0-0.5,0.1-0.7C75.3,50.9,75.6,51,75.9,51z"/>
			<path class="st4" d="M71.7,53.7c-0.1,0-0.1,0-0.2,0c-0.3-0.1-0.4-0.4-0.3-0.6c0.8-2.2,2.2-3.6,4.1-4.3c4.2-1.5,9.6,1.6,9.8,1.7
				c0.2,0.1,0.3,0.4,0.2,0.7c-0.1,0.2-0.4,0.3-0.7,0.2c-0.1,0-5.1-3-8.9-1.7c-1.6,0.6-2.7,1.8-3.5,3.7
				C72.1,53.5,71.9,53.7,71.7,53.7z"/>
		</g>
		<path class="st1" d="M51.5,19.3c0,0,1.2-5.7,0-10.3c0,0,7.8,11.7,4.6,13.4s-7.5,0-7.5,0L51.5,19.3z"/>
		<path class="st1" d="M77.4,19.3c0,0-1.2-5.7,0-10.3c0,0-7.8,11.7-4.6,13.4c3.2,1.7,7.5,0,7.5,0L77.4,19.3z"/>
		<ellipse class="st1" cx="64.8" cy="68.4" rx="7.8" ry="3.1"/>
		<path class="st2" d="M76.8,62.6c-1.7-2.4-6.5-5.4-7.6-7.2c-2-3.5-3.4-6.3,3.1-18.4c6.4-12.1-7.8-11.6-7.8-11.6S50.3,24.9,56.7,37
			s5,14.9,3.1,18.4c-1,1.8-5.9,4.8-7.6,7.2c-0.8,1.1-0.8,2.8-0.7,4.4c0.3,2.5,2.3,4.4,4.9,4.5h0.1c3.3,0.1,8-1.5,8-1.5
			s4.7,1.6,8,1.5h0.1c2.5-0.1,4.6-2,4.9-4.5C77.7,65.3,77.6,63.6,76.8,62.6z"/>
		<ellipse class="st1" cx="64.5" cy="63.7" rx="5.4" ry="3.4"/>
	</g>
</g>
</svg>
