<?xml version="1.0" encoding="utf-8"?>
<svg version="1.1" id="Calque_11" xmlns="http://www.w3.org/2000/svg" xmlns:xlink="http://www.w3.org/1999/xlink" x="0px" y="0px"
	 viewBox="0 0 250.1 192.3" style="enable-background:new 0 0 250.1 192.3;" xml:space="preserve">
<style>
	.st0{fill:#FCDC74;}
	.st1{fill:#29306F;}
	.st2{fill:#FFFFFF;}
	.st3{fill:#F6A76C;}
	.st4{fill:#FDFDFD;}
</style>
<g>
	<g>
		<g>
			<path class="st0" d="M157.5,112c0,0.4-0.2,0.7-0.6,1.1c-0.4,0.4-0.6,0.9-0.7,1.6c-0.1,0.4-0.3,0.6-0.6,0.6c-0.2,0-0.4,0-0.6-0.1
				s-0.4-0.2-0.7-0.3c-0.3-0.1-0.6-0.2-1-0.3s-1-0.1-1.7-0.1c-1.1,0-2.1,0.1-3.1,0.4c-1.1,0.3-2,0.7-2.9,1.3
				c-1.7,1.1-3.6,2.7-5.6,4.7s-3.9,4.3-5.5,6.7c-4.1,5.9-7.8,11.5-10.9,16.6c-3.1,5.1-5.7,9.8-7.8,13.9s-3.7,7.6-4.7,10.4
				c-1.1,2.9-1.6,5-1.6,6.3c0,1.1,0.2,1.9,0.7,2.6s1.2,1,2.3,1c1.7,0,3.3-0.5,4.8-1.6s2.9-2.4,4.3-3.9c1.4-1.6,2.6-3.3,3.7-5.2
				c1.1-1.9,2.1-3.7,2.9-5.4c0.1-0.2,0.3-0.3,0.6-0.3c0.3,0.1,0.3,0.3,0,0.7c-1.1,2.2-2.3,4.3-3.6,6.3s-2.6,3.8-4,5.3
				c-1.4,1.5-2.8,2.7-4.4,3.6c-1.5,0.9-3,1.3-4.5,1.3c-1.7,0-2.9-0.4-3.7-1.3s-1.2-2.1-1.2-3.5c0-1.5,0.3-3.1,0.9-4.8
				c0.6-1.7,1.5-3.8,2.7-6.3c-1.7,2.1-3.2,3.9-4.5,5.3s-2.4,2.5-3.4,3.3s-1.8,1.4-2.6,1.7c-0.7,0.3-1.3,0.5-1.9,0.5
				c-0.9,0-1.4-0.2-1.8-0.7c-0.3-0.5-0.5-1.1-0.5-1.8c0-0.6,0.1-1.3,0.5-2.2c0.3-0.9,0.7-1.8,1.3-2.6c2.3-3.7,4.8-6.7,7.6-9.1
				c2.8-2.4,6.3-3.9,10.4-4.6c3-5.2,5.8-9.9,8.5-14s5.7-8.2,8.9-12.1c2.6-3.3,5.3-6.3,7.9-8.8s5.3-4.4,8.1-5.7
				c2.1-1,3.9-1.5,5.5-1.5c0.7,0,1.3,0.1,1.8,0.3C157.3,111.3,157.5,111.7,157.5,112z M115.4,154.5c-2.4,0.1-4.1,0.5-5.4,1.3
				c-1.3,0.8-2.4,1.9-3.4,3.1c-2.4,2.9-4,5.4-5,7.4c-1,2.1-1.5,3.6-1.5,4.6c0,0.3,0.1,0.5,0.4,0.6c0.2,0.1,0.4,0.2,0.6,0.2
				c0.4,0,1.2-0.5,2.4-1.4c1.1-0.9,2.4-2.2,3.8-3.7c1.4-1.6,2.8-3.4,4.3-5.5C113,159,114.3,156.8,115.4,154.5z"/>
			<path class="st0" d="M112.2,179.6c-1.8,0-3.2-0.5-4.1-1.5c-0.9-1-1.3-2.3-1.3-3.8c0-1.5,0.3-3.2,0.9-4.9c0.3-0.9,0.7-1.8,1.1-2.8
				c-0.7,0.8-1.4,1.6-2.1,2.3c-1.3,1.4-2.5,2.6-3.5,3.4c-1,0.8-1.9,1.4-2.7,1.8c-0.8,0.4-1.5,0.6-2.1,0.6c-1.1,0-1.8-0.3-2.2-0.9
				c-0.4-0.5-0.5-1.2-0.5-2.1c0-0.6,0.2-1.4,0.5-2.3c0.3-1,0.8-1.9,1.3-2.7c2.3-3.7,4.9-6.8,7.7-9.2c2.8-2.3,6.3-3.9,10.4-4.7
				c3-5.3,5.8-9.8,8.4-13.8c2.8-4.2,5.8-8.3,8.9-12.2c2.6-3.3,5.3-6.3,8-8.8c2.6-2.6,5.4-4.5,8.2-5.8c2.2-1,4.1-1.5,5.7-1.5
				c0.8,0,1.4,0.1,2,0.3s1,0.7,1,1.3c0,0.5-0.2,1-0.7,1.5c-0.3,0.3-0.5,0.7-0.6,1.3c-0.3,0.9-0.8,1.1-1.1,1.1
				c-0.3,0-0.6-0.1-0.8-0.2c-0.1-0.1-0.3-0.2-0.5-0.2l-0.1-0.1c-0.3-0.1-0.6-0.2-0.9-0.3c-0.4-0.1-0.9-0.1-1.6-0.1c-1,0-2,0.1-3,0.4
				c-1,0.3-1.9,0.6-2.7,1.2c-1.7,1.1-3.5,2.7-5.5,4.7c-2,2.1-3.9,4.3-5.5,6.6c-4.1,5.9-7.8,11.5-10.9,16.6
				c-3.1,5.1-5.7,9.8-7.8,13.8s-3.6,7.5-4.7,10.4c-1,2.8-1.5,4.9-1.5,6.2c0,1,0.2,1.7,0.6,2.3c0.4,0.5,1,0.8,1.8,0.8
				c1.6,0,3.1-0.5,4.5-1.5s2.9-2.3,4.2-3.8c1.3-1.6,2.6-3.3,3.6-5.1c1.1-1.9,2.1-3.7,2.9-5.3c0.2-0.5,0.7-0.7,1.1-0.6
				c0.3,0.1,0.5,0.3,0.5,0.4c0.2,0.4-0.1,0.8-0.3,1.1c-1.1,2.2-2.3,4.3-3.5,6.3c-1.3,2-2.6,3.8-4,5.3c-1.4,1.6-2.9,2.8-4.5,3.7
				C115.4,179.1,113.8,179.6,112.2,179.6z M113.4,159.5l-2,4c-1.2,2.4-2.1,4.5-2.7,6.2c-0.6,1.6-0.9,3.2-0.9,4.6
				c0,1.3,0.4,2.4,1.1,3.1c0.5,0.5,1.1,0.9,1.9,1c-0.5-0.2-0.8-0.5-1.1-0.9c-0.5-0.8-0.8-1.7-0.8-2.9c0-1.4,0.5-3.6,1.6-6.5
				s2.7-6.4,4.7-10.5c2.1-4.1,4.7-8.8,7.8-13.9c3.1-5.1,6.8-10.7,10.9-16.7c0.1-0.1,0.1-0.2,0.2-0.3c-0.1,0.1-0.2,0.2-0.3,0.4
				c-3.1,3.9-6.1,7.9-8.9,12.1c-2.7,4-5.4,8.6-8.5,14l-0.1,0.2h-0.2c-0.9,0.2-1.7,0.4-2.6,0.6c0.5-0.1,1.1-0.1,1.7-0.1h0.8l-0.3,0.7
				c-1,2-2.1,4-3.3,5.9L113.4,159.5z M108.4,156.3c-0.8,0.5-1.6,1.1-2.4,1.7c-2.8,2.3-5.3,5.3-7.5,9c-0.5,0.8-0.9,1.6-1.3,2.5
				c-0.3,0.8-0.4,1.5-0.4,2c0,0.7,0.1,1.2,0.4,1.5c0.1,0.2,0.4,0.5,1.3,0.5c0.5,0,1-0.2,1.7-0.5c0.5-0.2,1.1-0.6,1.7-1
				c-0.4,0.2-0.7,0.3-0.9,0.3s-0.5-0.1-0.8-0.2c-0.4-0.2-0.6-0.6-0.6-1.1c0-1.1,0.5-2.6,1.5-4.8c1-2.1,2.7-4.6,5.1-7.5
				C106.9,157.8,107.6,157,108.4,156.3z M114.5,155c-1.8,0.1-3.3,0.5-4.3,1.2c-1.2,0.8-2.3,1.8-3.2,3c-2.3,2.9-4,5.3-4.9,7.3
				c-1,2-1.4,3.5-1.4,4.4c0,0.1,0,0.2,0.1,0.2c0.2,0.1,0.3,0.1,0.3,0.1c0.1,0,0.5-0.1,2.1-1.3c1.1-0.9,2.3-2.1,3.7-3.7
				c1.3-1.5,2.7-3.3,4.3-5.5C112.4,159,113.5,157,114.5,155z M155,111.4c-1.5,0-3.2,0.5-5.2,1.4c-1.8,0.9-3.6,2-5.4,3.4
				c0.3-0.2,0.6-0.4,0.9-0.6c1-0.6,1.9-1,3-1.3c1.2-0.3,2.2-0.4,3.3-0.4c0.7,0,1.3,0.1,1.8,0.2c0.4,0.1,0.8,0.2,1.1,0.4h0.1
				c0.3,0.1,0.5,0.2,0.6,0.3s0.2,0.1,0.3,0.1c0.1,0,0.2-0.3,0.2-0.3c0.1-0.7,0.4-1.3,0.9-1.8c0.3-0.3,0.4-0.5,0.4-0.8
				c0-0.1,0-0.2-0.3-0.3C156.2,111.5,155.7,111.4,155,111.4z"/>
		</g>
		<g>
			<path class="st0" d="M147.3,162.5c-1.1,1.3-2.3,2.6-3.7,4s-3,2.6-4.7,3.8s-3.5,2.1-5.3,2.8s-3.6,1.1-5.4,1.1
				c-2.9,0-4.4-1.3-4.4-3.9c0-1.7,0.4-3.6,1.3-5.6c0.9-2,2.1-3.9,3.5-5.6s3-3.1,4.7-4.3c1.7-1.1,3.3-1.7,4.9-1.7
				c0.9,0,1.5,0.1,1.8,0.5c0.3,0.3,0.5,0.7,0.5,1.2c0,0.7-0.2,1.5-0.7,2.4s-1.1,1.7-2.1,2.4c-0.9,0.8-2.1,1.4-3.5,1.9
				s-3.1,0.8-5.1,0.8c-0.3,0.6-0.6,1.4-1,2.6c-0.4,1.2-0.6,2.4-0.6,3.7c0,2.5,1.1,3.8,3.4,3.8c1.4,0,2.9-0.3,4.4-1s3-1.5,4.4-2.6
				c1.4-1,2.7-2.1,3.9-3.3s2.2-2.3,3-3.4c0.1-0.1,0.3-0.1,0.4-0.1C147.2,162.2,147.3,162.3,147.3,162.5z M137.6,155.3
				c0-0.8-0.4-1.2-1.2-1.2c-0.6,0-1.3,0.2-1.9,0.7c-0.6,0.5-1.3,1.1-1.9,1.8c-0.6,0.7-1.2,1.5-1.8,2.4s-1,1.7-1.4,2.5
				c0.1,0.1,0.3,0.1,0.6,0.1s0.6,0,0.7,0c1.8,0,3.4-0.6,4.7-1.9C136.9,158.5,137.6,157,137.6,155.3z"/>
			<path class="st0" d="M128.2,174.7c-4,0-4.9-2.4-4.9-4.4c0-1.8,0.5-3.7,1.4-5.8c0.9-2,2.1-3.9,3.6-5.7c1.4-1.7,3-3.2,4.8-4.4
				s3.5-1.8,5.1-1.8c1,0,1.7,0.2,2.1,0.6c0.5,0.4,0.7,1,0.7,1.6c0,0.8-0.3,1.7-0.8,2.6c-0.5,0.9-1.2,1.8-2.2,2.6s-2.2,1.5-3.7,2
				c-1.4,0.5-3,0.8-5,0.8c-0.2,0.5-0.5,1.3-0.8,2.3c-0.4,1.1-0.5,2.3-0.5,3.5c0,2.2,0.9,3.3,2.9,3.3c1.4,0,2.8-0.3,4.2-1
				c1.6-0.7,3-1.5,4.3-2.5c1.4-1,2.7-2.1,3.9-3.3c1.2-1.3,2.2-2.4,3-3.3c0.3-0.3,0.6-0.4,1-0.3c0.3,0.1,0.5,0.4,0.5,0.8v0.2
				l-0.1,0.1c-1.1,1.3-2.3,2.6-3.8,4.1c-1.4,1.4-3,2.7-4.8,3.9c-1.7,1.2-3.5,2.1-5.4,2.8C131.9,174.3,130,174.7,128.2,174.7z
				 M132.1,156.4c-1.1,0.9-2.2,1.9-3.1,3.1c-1.4,1.7-2.5,3.5-3.4,5.4s-1.3,3.7-1.3,5.4c0,2.3,1.2,3.4,3.9,3.4c1.5,0,3.1-0.3,4.8-0.9
				c-0.7,0.1-1.3,0.2-2,0.2c-1.8,0-3.9-0.7-3.9-4.3c0-1.3,0.2-2.6,0.6-3.8c0.4-1.3,0.7-2.2,1.1-2.7l0.1-0.3h0.3h0.1l-0.4-0.2
				l0.2-0.5c0.4-0.8,0.9-1.7,1.4-2.6C130.9,158,131.5,157.2,132.1,156.4z M147.3,162.5h-0.5H147.3z M130.2,161.2c0.3,0,0.5,0,0.7,0
				c1.7,0,3.1-0.6,4.4-1.8c1.2-1.2,1.9-2.6,1.9-4.2c0-0.5-0.2-0.7-0.7-0.7s-1.1,0.2-1.6,0.6c-0.7,0.5-1.3,1.1-1.8,1.7
				c-0.7,0.8-1.2,1.6-1.7,2.4C130.9,159.9,130.5,160.6,130.2,161.2z M137.2,153.8c0.5,0.3,0.8,0.8,0.8,1.5c0,1.8-0.7,3.5-2.2,4.9
				c-0.2,0.1-0.3,0.3-0.5,0.4c0.7-0.4,1.4-0.8,1.9-1.2c0.9-0.7,1.5-1.5,2-2.3c0.4-0.8,0.6-1.5,0.6-2.2c0-0.3-0.1-0.6-0.4-0.8
				c-0.2-0.2-0.7-0.3-1.5-0.3C137.8,153.7,137.5,153.7,137.2,153.8z"/>
		</g>
	</g>
	<g>
		<path class="st0" d="M178.4,56.2c0-29-23.5-52.5-52.5-52.5S73.4,27.2,73.4,56.2c0,17.1,8.2,32.3,20.8,41.9
			c10.9,12.8,30.8,13.4,32.3,19c0,0.1,0,0.1,0,0.2v-0.1v0.1c0-0.1,0-0.1,0-0.2c1.5-5.7,22.3-6.2,33.1-19.9v-0.1
			c0.1-0.3,0.1-0.5,0.1-0.8C171.2,86.7,178.4,72.3,178.4,56.2z"/>
		<path class="st1" d="M174.7,7.9c-0.1-1.4-1.6-2.9-3.3-4.1C168.9,2,166,0.7,166,0.7c-19.4-5-26.1,17.1-28.8,15.1
			c-2.5-1.9-9.4-2.3-10.5-2.3l0,0c0,0,0,0-0.1,0s-0.1,0-0.1,0l0,0c-1.1,0.1-8,0.5-10.5,2.3c-2.7,2-9.4-20.1-28.8-15.1
			c0,0-2.9,1.3-5.4,3.1c-1.7,1.2-3.2,2.7-3.3,4.1c0,0,7-5.2,6,0s-0.3,22.9,3.7,26.6c0,0-3.4,8-2.4,14.7c0,0,5-12.1,6-5.7
			c1,6.4,2,13.4-1.7,25.1S88,86.9,89.4,90.4c1,2.5,2.3,4.7,3.8,6.7c-4.3-21,23.8-31.4,23.8-31.4l9.3-7.1v-0.1l0,0l0,0v0.1l9.3,7.1
			c0,0,28.1,10.5,23.8,31.4v0.1c1.6-2,2.9-4.2,3.9-6.8c1.4-3.4,3-10.1-0.7-21.8s-2.7-18.8-1.7-25.1c1-6.4,6,5.7,6,5.7
			c1-6.7-2.4-14.7-2.4-14.7c4-3.7,4.7-21.4,3.7-26.6C167.6,2.7,174.7,7.9,174.7,7.9z"/>
		<path class="st2" d="M135.9,65.7l-9.3-7.1v-0.1l0,0l0,0v0.1l-9.3,7.1c0,0-28.1,10.5-23.8,31.4c10.7,13.8,31.6,14.3,33.2,20
			c0,0.1,0,0.1,0,0.2v-0.1v0.1c0-0.1,0-0.1,0-0.2c1.5-5.7,22.3-6.2,33.1-19.9v-0.1C164,76.1,135.9,65.7,135.9,65.7z"/>
		<path class="st3" d="M126.6,58.6v-8.5c0,0-8-5.1-13.8-1.5C107,52.2,99.2,56,99.9,63.2c0.7,7.1,1.4,5.9-1.7,11.6
			c-3.1,5.7-3.4,9.8-3.4,9.8c5.6-12.6,22.5-18.9,22.5-18.9L126.6,58.6L126.6,58.6L126.6,58.6L126.6,58.6z"/>
		<path class="st3" d="M126.6,58.6v-8.5c0,0,8-5.1,13.8-1.5c5.8,3.6,13.6,7.4,12.9,14.6c-0.7,7.1-1.4,5.9,1.7,11.6
			c3.1,5.7,3.4,9.8,3.4,9.8c-5.6-12.6-22.5-18.9-22.5-18.9L126.6,58.6L126.6,58.6L126.6,58.6L126.6,58.6z"/>
		<g>
			<path class="st2" d="M107.3,45c0.4,2.8,2.7,5,5.6,5c2.4,0,4.5-1.6,5.3-3.8C115.3,42.1,109.9,43.9,107.3,45z"/>
			<path class="st1" d="M114.8,45.8c-0.9,0-1.6-0.3-1.6-0.6s0.7-0.6,1.6-0.6c0.1,0,0.2,0,0.4,0c-0.5-0.8-1.4-1.2-2.4-1.2
				c-1.6,0-3,1.3-3,3c0,1.6,1.3,3,3,3s3-1.3,3-3c0-0.2,0-0.5-0.1-0.7C115.4,45.8,115.1,45.8,114.8,45.8z"/>
			<path class="st4" d="M119.1,48.5c-0.2,0-0.4-0.1-0.5-0.3c-0.7-1.9-1.9-3.1-3.5-3.7c-3.8-1.3-8.9,1.6-8.9,1.7
				c-0.2,0.1-0.5,0.1-0.7-0.2c-0.1-0.2-0.1-0.5,0.2-0.7c0.2-0.1,5.5-3.2,9.8-1.7c1.9,0.7,3.2,2.1,4.1,4.3c0.1,0.3,0,0.5-0.3,0.6
				C119.2,48.5,119.1,48.5,119.1,48.5z"/>
		</g>
		<g>
			<path class="st2" d="M145.5,45c-0.4,2.8-2.7,5-5.6,5c-2.4,0-4.5-1.6-5.3-3.8C137.5,42.1,143,43.9,145.5,45z"/>
			<path class="st1" d="M138,45.8c0.9,0,1.6-0.3,1.6-0.6s-0.7-0.6-1.6-0.6c-0.1,0-0.2,0-0.4,0c0.5-0.8,1.4-1.2,2.4-1.2
				c1.6,0,3,1.3,3,3c0,1.6-1.3,3-3,3c-1.6,0-3-1.3-3-3c0-0.2,0-0.5,0.1-0.7C137.4,45.8,137.7,45.8,138,45.8z"/>
			<path class="st4" d="M133.8,48.5c-0.1,0-0.1,0-0.2,0c-0.3-0.1-0.4-0.4-0.3-0.6c0.8-2.2,2.2-3.6,4.1-4.3c4.2-1.5,9.6,1.6,9.8,1.7
				s0.3,0.4,0.2,0.7c-0.1,0.2-0.4,0.3-0.7,0.2c-0.1,0-5.1-3-8.9-1.7c-1.6,0.6-2.7,1.8-3.5,3.7C134.2,48.4,134,48.5,133.8,48.5z"/>
		</g>
		<path class="st1" d="M113.6,14.1c0,0,1.2-5.7,0-10.3c0,0,7.8,11.7,4.6,13.4c-3.2,1.7-7.5,0-7.5,0L113.6,14.1z"/>
		<path class="st1" d="M139.5,14.1c0,0-1.2-5.7,0-10.3c0,0-7.8,11.7-4.6,13.4c3.2,1.7,7.5,0,7.5,0L139.5,14.1z"/>
		<ellipse class="st1" cx="126.9" cy="63.3" rx="7.8" ry="3.1"/>
		<path class="st2" d="M139,57.4c-1.7-2.4-6.5-5.4-7.6-7.2c-2-3.5-3.4-6.3,3.1-18.4s-7.8-11.6-7.8-11.6s-14.2-0.5-7.8,11.6
			s5,14.9,3.1,18.4c-1,1.8-5.9,4.8-7.6,7.2c-0.8,1.1-0.8,2.8-0.7,4.4c0.3,2.5,2.3,4.4,4.9,4.5h0.1c3.3,0.1,8-1.5,8-1.5
			s4.7,1.6,8,1.5h0.1c2.5-0.1,4.6-2,4.9-4.5C139.8,60.2,139.7,58.5,139,57.4z"/>
		<ellipse class="st1" cx="126.6" cy="58.6" rx="5.4" ry="3.4"/>
	</g>
	<g>
		<path class="st1" d="M21,140l-0.2,7.2H0v-0.8h0.7c1.1,0,1.8-0.1,2.2-0.4c0.4-0.3,0.7-0.7,0.8-1.2c0.1-0.6,0.2-1.9,0.2-3.9v-12
			c0-1.9-0.1-3.2-0.2-3.8s-0.4-1-0.7-1.2c-0.4-0.2-1.2-0.3-2.4-0.3H0.1v-0.8h11.8v0.8h-1.1c-1.2,0-2,0.1-2.4,0.3s-0.6,0.6-0.8,1.1
			c-0.1,0.5-0.2,1.8-0.2,3.9v12.8c0,1.8,0.1,2.9,0.1,3.3c0.1,0.4,0.4,0.8,0.8,1s1.4,0.4,2.8,0.4H13c1.5,0,2.6-0.1,3.4-0.4
			c0.7-0.3,1.4-0.9,2.1-1.7c0.6-0.9,1.3-2.3,1.8-4.2L21,140L21,140z"/>
		<path class="st1" d="M44.2,139.6h0.9l-0.5,7.6H24.3v-0.8h0.5c1.2,0,2-0.2,2.4-0.5s0.6-0.7,0.7-1.2c0.1-0.5,0.1-1.8,0.1-3.8v-12
			c0-1.9-0.1-3.1-0.1-3.7c-0.1-0.6-0.3-1-0.7-1.2s-1.1-0.4-2.3-0.4v-0.8h17.5l0.6,6.1h-0.9c-0.4-1.7-0.9-2.9-1.4-3.6
			c-0.6-0.7-1.2-1.2-2-1.4s-2-0.3-3.7-0.3h-3.4v10.3h2.6c1.2,0,2-0.1,2.5-0.3s0.8-0.5,0.9-0.9c0.1-0.4,0.2-1.2,0.2-2.4h0.9v8.4h-0.9
			c0-1.4-0.1-2.3-0.4-2.7c-0.2-0.5-0.6-0.8-1-0.9c-0.4-0.1-1.2-0.2-2.2-0.2h-2.7v5.8c0,2.9,0.2,4.6,0.6,5.1s1.4,0.8,3,0.8h1.8
			c1.3,0,2.4-0.2,3.2-0.5s1.6-1,2.4-2C43.1,142.8,43.7,141.4,44.2,139.6z"/>
		<path class="st1" d="M59.7,122.9l4-0.2c3.4-0.2,5.6-0.3,6.8-0.3c3.6,0,6.5,0.6,8.5,1.7s3.6,2.6,4.6,4.5s1.5,4.1,1.5,6.6
			c0,1.8-0.3,3.4-0.8,4.9s-1.3,2.7-2.2,3.7s-2,1.7-3.3,2.2c-1.2,0.5-2.4,0.8-3.6,1c-1.1,0.1-2.7,0.2-4.7,0.2H59.6v-0.8h1
			c1.1,0,1.8-0.1,2.2-0.4c0.4-0.3,0.7-0.7,0.8-1.2c0.1-0.6,0.2-1.9,0.2-3.9v-11.8c0-1.9-0.1-3.2-0.2-3.8c-0.1-0.6-0.4-1-0.7-1.2
			c-0.4-0.2-1.2-0.3-2.4-0.3h-0.7L59.7,122.9L59.7,122.9z M67.3,123.4v16.4c0,2.4,0,4,0.1,4.7s0.4,1.2,0.8,1.5
			c0.4,0.3,1.4,0.4,2.9,0.4c2.1,0,3.9-0.3,5.3-0.9c1.4-0.6,2.5-1.7,3.4-3.5s1.4-3.9,1.4-6.6c0-2.1-0.3-3.9-0.8-5.6
			c-0.5-1.6-1.3-2.9-2.3-4c-1-1-2.1-1.7-3.3-2.1c-1.2-0.4-2.8-0.6-4.7-0.6C69.1,123.3,68.2,123.3,67.3,123.4z"/>
		<path class="st1" d="M90.6,134.8c0-3.8,1.3-6.8,3.8-9.1s5.7-3.4,9.5-3.4s7,1.1,9.6,3.4c2.6,2.3,3.9,5.4,3.9,9.3
			c0,3.8-1.2,6.9-3.7,9.2c-2.4,2.4-5.7,3.5-9.7,3.5c-3.9,0-7.1-1.2-9.6-3.5C91.8,141.8,90.6,138.7,90.6,134.8z M94.8,134.9
			c0,3.9,0.8,6.9,2.4,8.9c1.6,2,3.9,3,7.1,3c2.8,0,4.9-1,6.6-3c1.6-2,2.4-4.9,2.4-8.9c0-3.8-0.8-6.7-2.4-8.8c-1.6-2-3.9-3.1-6.9-3.1
			s-5.2,1-6.8,3C95.5,128.1,94.8,131,94.8,134.9z"/>
		<path class="st1" d="M138.1,143l8.9-20.3h7.5v0.8h-0.9c-1.2,0-2,0.1-2.4,0.3s-0.6,0.6-0.8,1.1s-0.2,1.8-0.2,3.9v12
			c0,1.9,0.1,3.2,0.1,3.8c0.1,0.6,0.3,1,0.7,1.3c0.4,0.3,1.1,0.4,2.3,0.4h1.1v0.8h-11.7v-0.8h0.9c1,0,1.8-0.1,2.2-0.4
			c0.4-0.3,0.7-0.7,0.8-1.2c0.1-0.6,0.2-1.9,0.2-3.9v-15.6l-9.7,22h-0.9l-9.8-22v14.4c0,2,0.1,3.3,0.2,4c0.1,0.7,0.5,1.3,1.1,1.9
			c0.6,0.5,1.5,0.8,2.6,0.9v0.8h-8.8v-0.8c1.1-0.1,1.9-0.4,2.6-0.9c0.6-0.5,1.1-1.1,1.2-1.9s0.2-2.1,0.2-4.2v-10.7
			c0-1.9-0.1-3.2-0.2-3.8c-0.1-0.6-0.4-1-0.7-1.2c-0.4-0.2-1.2-0.3-2.4-0.3h-0.7v-0.8h7.5L138.1,143z"/>
		<path class="st1" d="M172.9,138.2h-9.3l-0.6,1.6c-0.9,2.3-1.4,3.7-1.4,4.4s0.3,1.3,0.8,1.7s1.1,0.6,1.9,0.6v0.8H157v-0.8
			c1.1-0.2,1.9-0.6,2.4-1.1c0.5-0.6,1.2-1.9,1.9-3.8c0.1-0.2,0.4-0.9,0.9-2.1l7.1-17h0.7l8.2,19.5l1.1,2.6c0.3,0.6,0.6,1,1,1.4
			c0.4,0.3,1.1,0.5,1.9,0.6v0.8h-9.6v-0.8c1.2,0,2-0.1,2.4-0.3s0.6-0.5,0.6-1c0-0.3-0.3-1.1-0.8-2.4L172.9,138.2z M172.6,137.4
			l-4.3-10.4l-4.3,10.4H172.6z"/>
		<path class="st1" d="M184.7,123.5v-0.8h11.2v0.8h-0.5c-1.2,0-2,0.1-2.4,0.3s-0.6,0.6-0.8,1.1s-0.2,1.8-0.2,3.9v12
			c0,1.9,0,3.2,0.1,3.8s0.3,1,0.7,1.3c0.4,0.3,1.1,0.4,2.3,0.4h0.7v0.8h-11.2v-0.8h0.7c1.1,0,1.8-0.1,2.2-0.4
			c0.4-0.3,0.7-0.7,0.8-1.2c0.1-0.6,0.2-1.9,0.2-3.9v-12c0-1.9-0.1-3.2-0.2-3.8s-0.4-1-0.7-1.2c-0.4-0.2-1.2-0.3-2.4-0.3
			L184.7,123.5L184.7,123.5z"/>
		<path class="st1" d="M221.3,147.8l-17.4-23v17c0,1.4,0.1,2.3,0.2,2.8c0.1,0.4,0.5,0.9,1.2,1.2s1.6,0.6,2.9,0.6v0.8h-9.1v-0.8
			c1.2-0.1,2.1-0.3,2.7-0.6c0.6-0.4,1-0.7,1.1-1.1c0.1-0.4,0.2-1.3,0.2-2.8v-13c0-1.9-0.1-3.1-0.3-3.8c-0.2-0.6-0.4-1.1-0.8-1.2
			c-0.4-0.2-1.2-0.3-2.5-0.3v-0.8h7.2l14.5,19.2v-14.7c0-1.1-0.1-1.9-0.3-2.3c-0.2-0.4-0.7-0.8-1.4-1c-0.7-0.3-1.5-0.4-2.5-0.4v-0.8
			h8.9v0.8c-1,0.1-1.9,0.3-2.4,0.6c-0.6,0.3-1,0.7-1.1,1.1c-0.2,0.4-0.2,1.2-0.2,2.2v20.3H221.3L221.3,147.8z"/>
		<path class="st1" d="M249.2,139.6h0.9l-0.5,7.6h-20.3v-0.8h0.5c1.2,0,2-0.2,2.4-0.5s0.6-0.7,0.7-1.2s0.1-1.8,0.1-3.8v-12
			c0-1.9-0.1-3.1-0.1-3.7c-0.1-0.6-0.3-1-0.7-1.2s-1.1-0.4-2.3-0.4v-0.8h17.5l0.6,6.1h-0.9c-0.4-1.7-0.9-2.9-1.4-3.6
			c-0.6-0.7-1.2-1.2-2-1.4s-2-0.3-3.7-0.3h-3.4v10.3h2.6c1.2,0,2-0.1,2.5-0.3s0.8-0.5,0.9-0.9s0.2-1.2,0.2-2.4h0.9v8.4h-0.9
			c0-1.4-0.1-2.3-0.4-2.7c-0.2-0.5-0.6-0.8-1-0.9c-0.4-0.1-1.2-0.2-2.2-0.2h-2.7v5.8c0,2.9,0.2,4.6,0.6,5.1s1.4,0.8,3,0.8h1.8
			c1.3,0,2.4-0.2,3.2-0.5c0.8-0.3,1.6-1,2.4-2C248.1,142.8,248.7,141.4,249.2,139.6z"/>
		<path class="st1" d="M20.1,187.4l8.9-20.3h7.5v0.8h-0.9c-1.2,0-2,0.1-2.4,0.3s-0.6,0.6-0.8,1.1s-0.2,1.8-0.2,3.9v12
			c0,1.9,0.1,3.2,0.1,3.8c0.1,0.6,0.3,1,0.7,1.3s1.1,0.4,2.3,0.4h1.1v0.8H24.7v-0.8h0.9c1,0,1.8-0.1,2.2-0.4s0.7-0.7,0.8-1.2
			c0.1-0.6,0.2-1.9,0.2-3.9v-15.6l-9.7,22h-0.9l-9.8-22V184c0,2,0.1,3.3,0.2,4s0.5,1.3,1.1,1.9c0.6,0.5,1.5,0.8,2.6,0.9v0.8H3.5
			v-0.8c1.1-0.1,1.9-0.4,2.6-0.9c0.6-0.5,1.1-1.1,1.2-1.9c0.1-0.7,0.2-2.1,0.2-4.2v-10.7c0-1.9-0.1-3.2-0.2-3.8s-0.4-1-0.7-1.2
			c-0.4-0.2-1.2-0.3-2.4-0.3H3.5V167H11L20.1,187.4z"/>
		<path class="st1" d="M40.9,179.2c0-3.8,1.3-6.8,3.8-9.1s5.7-3.4,9.5-3.4s7,1.1,9.6,3.4c2.6,2.3,3.9,5.4,3.9,9.3
			c0,3.8-1.2,6.9-3.7,9.2c-2.4,2.4-5.7,3.5-9.7,3.5c-3.9,0-7.1-1.2-9.6-3.5C42.1,186.2,40.9,183.1,40.9,179.2z M45,179.4
			c0,3.9,0.8,6.9,2.4,8.9c1.6,2,3.9,3,7.1,3c2.8,0,4.9-1,6.6-3s2.4-4.9,2.4-8.9c0-3.8-0.8-6.7-2.4-8.8c-1.6-2-3.9-3.1-6.9-3.1
			s-5.2,1-6.8,3S45,175.5,45,179.4z"/>
		<path class="st1" d="M93.9,192.2l-17.4-23v17c0,1.4,0.1,2.3,0.2,2.8c0.1,0.4,0.5,0.9,1.2,1.2s1.6,0.6,2.9,0.6v0.8h-9.1v-0.8
			c1.2-0.1,2.1-0.3,2.7-0.6s1-0.7,1.1-1.1s0.2-1.3,0.2-2.8v-13c0-1.9-0.1-3.1-0.3-3.8c-0.2-0.6-0.4-1.1-0.8-1.2
			c-0.4-0.2-1.2-0.3-2.5-0.3v-0.8h7.2l14.5,19.2v-14.7c0-1.1-0.1-1.9-0.3-2.3c-0.2-0.4-0.7-0.8-1.4-1c-0.7-0.3-1.5-0.4-2.5-0.4v-0.8
			h8.9v0.8c-1,0.1-1.9,0.3-2.4,0.6c-0.6,0.3-1,0.7-1.1,1.1c-0.2,0.4-0.2,1.2-0.2,2.2v20.3L93.9,192.2L93.9,192.2z"/>
		<path class="st1" d="M102.4,173h-0.8l0.1-5.9h23.8l0.1,5.9h-0.8c-0.3-1.6-0.6-2.8-1.1-3.5s-1-1.1-1.6-1.3s-1.5-0.2-2.8-0.2h-3.9
			v17.3c0,1.9,0,3.2,0.1,3.8c0.1,0.6,0.3,1.1,0.7,1.3s1.1,0.4,2.2,0.4h1.2v0.8h-12.2v-0.8h1.3c1.1,0,1.8-0.1,2.2-0.4
			s0.7-0.7,0.8-1.2c0.1-0.6,0.2-1.9,0.2-3.9V168h-3.6c-1.6,0-2.6,0.1-3.2,0.2c-0.5,0.1-1.1,0.6-1.5,1.4
			C103,170.3,102.6,171.5,102.4,173z"/>
		<path class="st1" d="M129,167.3l4-0.2c3.4-0.2,5.6-0.3,6.8-0.3c3.6,0,6.5,0.6,8.5,1.7c2,1.1,3.6,2.6,4.6,4.5
			c1,1.9,1.5,4.1,1.5,6.6c0,1.8-0.3,3.4-0.8,4.9s-1.3,2.7-2.2,3.7c-0.9,1-2,1.7-3.3,2.2c-1.2,0.5-2.4,0.8-3.6,1
			c-1.1,0.1-2.7,0.2-4.7,0.2h-10.9v-0.8h1c1.1,0,1.8-0.1,2.2-0.4s0.7-0.7,0.8-1.2s0.2-1.9,0.2-3.9v-11.8c0-1.9-0.1-3.2-0.2-3.8
			c-0.1-0.6-0.4-1-0.7-1.2c-0.4-0.2-1.2-0.3-2.4-0.3h-0.7L129,167.3L129,167.3z M136.6,167.8v16.4c0,2.4,0,4,0.1,4.7
			s0.4,1.2,0.8,1.5c0.4,0.3,1.4,0.4,2.9,0.4c2.1,0,3.9-0.3,5.3-0.9c1.4-0.6,2.5-1.7,3.4-3.5c0.9-1.7,1.4-3.9,1.4-6.6
			c0-2.1-0.3-3.9-0.8-5.6c-0.5-1.6-1.3-2.9-2.3-4c-1-1-2.1-1.7-3.3-2.1c-1.2-0.4-2.8-0.6-4.7-0.6
			C138.5,167.7,137.5,167.8,136.6,167.8z"/>
		<path class="st1" d="M179.2,184h0.9l-0.5,7.6h-20.3v-0.8h0.5c1.2,0,2-0.2,2.4-0.5s0.6-0.7,0.7-1.2s0.1-1.8,0.1-3.8v-12
			c0-1.9-0.1-3.1-0.1-3.7c-0.1-0.6-0.3-1-0.7-1.2c-0.4-0.2-1.1-0.4-2.3-0.4v-0.8h17.5l0.6,6.1h-0.9c-0.4-1.7-0.9-2.9-1.4-3.6
			c-0.6-0.7-1.2-1.2-2-1.4s-2-0.3-3.7-0.3h-3.4v10.3h2.6c1.2,0,2-0.1,2.5-0.3c0.5-0.2,0.8-0.5,0.9-0.9s0.2-1.2,0.2-2.4h0.9v8.4h-0.9
			c0-1.4-0.1-2.3-0.4-2.7c-0.2-0.5-0.6-0.8-1-0.9s-1.2-0.2-2.2-0.2h-2.7v5.8c0,2.9,0.2,4.6,0.6,5.1s1.4,0.8,3,0.8h1.8
			c1.3,0,2.4-0.2,3.2-0.5c0.8-0.3,1.6-1,2.4-2C178.1,187.2,178.7,185.8,179.2,184z"/>
		<path class="st1" d="M205.7,192.2l-17.4-23v17c0,1.4,0.1,2.3,0.2,2.8c0.1,0.4,0.5,0.9,1.2,1.2s1.6,0.6,2.9,0.6v0.8h-9.1v-0.8
			c1.2-0.1,2.1-0.3,2.7-0.6c0.6-0.4,1-0.7,1.1-1.1s0.2-1.3,0.2-2.8v-13c0-1.9-0.1-3.1-0.3-3.8c-0.2-0.6-0.4-1.1-0.8-1.2
			c-0.4-0.2-1.2-0.3-2.5-0.3v-0.8h7.2l14.5,19.2v-14.7c0-1.1-0.1-1.9-0.3-2.3s-0.7-0.8-1.4-1c-0.7-0.3-1.5-0.4-2.5-0.4v-0.8h8.9v0.8
			c-1,0.1-1.9,0.3-2.4,0.6c-0.6,0.3-1,0.7-1.1,1.1c-0.2,0.4-0.2,1.2-0.2,2.2v20.3L205.7,192.2L205.7,192.2z"/>
		<path class="st1" d="M213.3,168v-0.8h11.2v0.8H224c-1.2,0-2,0.1-2.4,0.3s-0.6,0.6-0.8,1.1s-0.2,1.8-0.2,3.9v12
			c0,1.9,0,3.2,0.1,3.8c0.1,0.6,0.3,1,0.7,1.3s1.1,0.4,2.3,0.4h0.7v0.8h-11.2v-0.8h0.7c1.1,0,1.8-0.1,2.2-0.4s0.7-0.7,0.8-1.2
			c0.1-0.6,0.2-1.9,0.2-3.9v-12c0-1.9-0.1-3.2-0.2-3.8s-0.4-1-0.7-1.2c-0.4-0.2-1.2-0.3-2.4-0.3L213.3,168L213.3,168z"/>
		<path class="st1" d="M229.3,191.4v-7.9h0.9c1,5.1,3.5,7.7,7.3,7.7c1.7,0,3.1-0.5,4-1.5s1.4-2.1,1.4-3.3s-0.4-2.3-1.2-3.1
			c-0.8-0.8-2.4-1.7-4.6-2.6c-2-0.9-3.4-1.6-4.4-2.2s-1.8-1.5-2.3-2.5s-0.8-2.1-0.8-3.2c0-1.7,0.6-3.2,1.8-4.4
			c1.2-1.2,2.7-1.7,4.6-1.7c1,0,2,0.2,2.9,0.5s1.9,1,2.8,2.1c0.6-0.7,0.9-1.4,0.9-2.1h0.8v6.4h-0.8c-0.5-1.9-1.3-3.3-2.4-4.4
			c-1.2-1.1-2.5-1.6-4-1.6s-2.5,0.4-3.2,1.2s-1,1.6-1,2.6c0,1.1,0.4,2.1,1.3,2.9c0.9,0.8,2.4,1.7,4.6,2.7c2.1,0.9,3.6,1.7,4.6,2.3
			c1,0.6,1.7,1.4,2.3,2.4c0.6,1,0.9,2.2,0.9,3.5c0,2.1-0.7,3.8-2.1,5.1c-1.4,1.3-3.3,2-5.6,2c-2.7,0-4.9-1-6.7-3.1
			c-0.4,0.6-0.7,1.4-0.9,2.4L229.3,191.4L229.3,191.4z"/>
	</g>
</g>
</svg>
