<?xml version="1.0" standalone="no"?>
<!DOCTYPE svg PUBLIC "-//W3C//DTD SVG 20010904//EN"
 "http://www.w3.org/TR/2001/REC-SVG-20010904/DTD/svg10.dtd">
<svg version="1.0" xmlns="http://www.w3.org/2000/svg"
 width="700.000000pt" height="700.000000pt" viewBox="0 0 700.000000 700.000000"
 preserveAspectRatio="xMidYMid meet">
<metadata>
Created by potrace 1.11, written by Peter Selinger 2001-2013
</metadata>
<g transform="translate(0.000000,700.000000) scale(0.100000,-0.100000)"
fill="#000000" stroke="none">
<path d="M1699 6726 c-2 -2 -44 -6 -94 -9 -147 -10 -229 -29 -305 -71 -25 -13
-63 -34 -85 -46 -158 -86 -282 -199 -315 -285 l-10 -27 42 26 c81 51 171 89
218 94 79 7 89 -27 61 -222 -8 -58 -6 -505 3 -561 2 -16 7 -68 11 -115 4 -47
9 -88 11 -91 1 -3 -9 -21 -25 -40 -182 -224 -384 -623 -475 -939 -41 -144 -56
-212 -81 -365 -24 -148 -30 -229 -30 -440 0 -257 10 -356 61 -614 87 -436 330
-922 639 -1278 87 -100 255 -263 343 -335 42 -34 118 -103 167 -153 258 -261
537 -417 1160 -649 356 -132 480 -199 524 -283 13 -26 31 -31 31 -9 0 25 86
102 157 138 85 45 139 67 437 180 132 49 263 101 292 114 29 13 56 24 59 24
17 0 311 153 386 201 201 127 412 318 497 448 23 35 95 119 160 185 485 494
761 1080 829 1761 15 146 7 576 -12 645 -2 8 -6 38 -10 65 -22 178 -112 498
-187 663 -15 34 -28 65 -28 68 0 3 -24 54 -54 114 -61 120 -139 251 -215 361
l-51 74 10 65 c5 36 12 101 15 145 4 44 8 96 11 115 5 54 5 462 -1 490 -3 14
-8 63 -11 110 -6 79 -4 87 17 109 19 20 28 23 70 18 49 -6 170 -61 218 -98 35
-28 38 -9 5 48 -63 112 -356 305 -509 337 -231 47 -431 32 -625 -47 -75 -30
-229 -121 -285 -167 -52 -44 -149 -134 -162 -152 -12 -16 -16 -16 -56 2 -23
10 -93 34 -154 53 -62 18 -115 36 -119 39 -3 4 -1 23 5 45 9 34 8 36 -4 18
-45 -64 -35 -61 -111 -42 -81 19 -170 34 -309 52 -102 13 -540 14 -620 1 -22
-3 -74 -11 -116 -16 -41 -6 -86 -13 -100 -15 -56 -11 -85 -17 -100 -21 -11 -3
-22 7 -33 28 l-17 33 4 -36 5 -36 -56 -13 c-32 -7 -104 -28 -162 -46 -58 -19
-110 -34 -115 -34 -6 0 -31 19 -55 43 -207 199 -426 307 -670 333 -36 3 -68 8
-71 10 -3 2 -8 2 -10 0z"/>
</g>
</svg>
