<?xml version="1.0" standalone="no"?>
<!DOCTYPE svg PUBLIC "-//W3C//DTD SVG 20010904//EN"
 "http://www.w3.org/TR/2001/REC-SVG-20010904/DTD/svg10.dtd">
<svg version="1.0" xmlns="http://www.w3.org/2000/svg"
 width="1027.000000pt" height="1027.000000pt" viewBox="0 0 1027.000000 1027.000000"
 preserveAspectRatio="xMidYMid meet">
<metadata>
Created by potrace 1.11, written by Peter Selinger 2001-2013
</metadata>
<g transform="translate(0.000000,1027.000000) scale(0.100000,-0.100000)"
fill="#000000" stroke="none">
<path d="M2184 9600 c-189 -19 -272 -42 -427 -123 -280 -144 -485 -305 -547
-429 -28 -56 -37 -88 -25 -88 2 0 36 20 75 45 120 78 236 129 304 133 55 4 63
1 85 -22 31 -33 32 -79 7 -276 -16 -126 -18 -192 -13 -495 7 -403 27 -643 78
-920 55 -297 131 -509 219 -609 l29 -33 -35 -92 c-72 -191 -142 -483 -163
-683 -18 -162 -11 -428 10 -428 5 0 9 6 9 13 0 24 178 372 230 449 97 144 168
184 209 117 45 -73 111 -608 111 -895 0 -326 -64 -754 -165 -1097 -277 -940
-287 -1531 -32 -2077 68 -147 249 -441 263 -427 2 2 -3 51 -12 108 -13 81 -15
145 -11 294 6 194 15 256 62 420 173 595 763 1187 1594 1600 91 45 187 91 213
101 27 11 48 21 48 24 0 3 -21 16 -46 29 -145 77 -220 260 -196 480 18 167 70
234 382 493 238 197 277 241 345 380 84 172 101 290 70 474 -37 211 -109 401
-310 814 -83 170 -153 327 -165 370 -95 346 46 562 427 657 100 25 124 27 313
27 189 0 213 -2 313 -27 381 -95 521 -310 427 -657 -12 -45 -73 -182 -154
-345 -200 -401 -277 -593 -317 -789 -43 -207 -23 -363 68 -539 59 -114 108
-166 322 -345 337 -281 397 -359 408 -528 13 -211 -55 -373 -192 -456 -53 -32
-67 -48 -44 -48 19 0 366 -172 484 -239 163 -94 405 -257 530 -357 139 -112
344 -310 447 -434 224 -266 376 -581 428 -884 30 -176 27 -421 -6 -591 -6 -29
-5 -28 28 15 131 169 233 362 303 572 59 178 83 291 97 475 27 340 -31 746
-172 1208 -107 348 -154 553 -192 840 -18 131 -22 211 -23 440 0 293 8 402 51
682 26 171 40 217 72 247 25 22 51 15 99 -27 69 -60 210 -300 299 -509 15 -37
32 -64 36 -60 4 4 10 66 14 137 13 260 -45 600 -160 930 l-45 128 39 51 c126
167 215 517 266 1051 26 265 26 840 0 1021 -21 149 -15 187 32 225 56 44 180
9 361 -101 109 -66 119 -62 75 28 -58 119 -276 290 -554 436 -102 53 -143 69
-225 85 -440 89 -840 18 -1190 -211 -265 -173 -479 -387 -760 -763 -53 -71
-101 -131 -105 -133 -9 -4 -28 131 -40 297 -11 135 -2 320 21 445 5 32 8 60 6
62 -6 6 -109 -154 -169 -261 -92 -162 -181 -351 -219 -464 -23 -69 -44 -116
-51 -115 -7 1 -59 11 -115 22 -185 38 -373 55 -543 48 -154 -6 -356 -30 -499
-61 -41 -8 -75 -14 -76 -13 -2 2 -19 51 -38 110 -43 128 -108 267 -206 443
-74 131 -190 316 -191 302 0 -4 7 -53 17 -110 23 -143 22 -413 -1 -584 -10
-73 -21 -133 -25 -133 -3 1 -40 46 -81 102 -404 549 -728 828 -1121 969 -198
71 -447 100 -665 79z m1971 -3555 c160 -42 269 -132 359 -296 40 -72 43 -91
21 -109 -30 -25 -59 -4 -90 67 l-31 67 -27 -46 c-40 -68 -137 -152 -215 -185
-59 -24 -80 -28 -172 -28 -100 0 -109 2 -180 36 -41 20 -90 49 -109 65 -53 45
-119 140 -138 200 -9 30 -21 54 -27 54 -6 0 -31 -11 -55 -25 -23 -14 -51 -25
-62 -25 -25 0 -40 30 -27 54 22 39 275 140 428 171 91 18 253 18 325 0z m2305
-18 c101 -28 187 -60 285 -109 63 -31 75 -42 75 -70 0 -30 -43 -32 -98 -4 -58
29 -72 32 -72 12 0 -33 -75 -159 -125 -209 -182 -185 -467 -181 -649 9 -24 25
-50 59 -56 75 -15 36 -24 30 -51 -32 -23 -53 -48 -74 -78 -64 -34 11 -32 36
11 118 77 149 206 254 356 292 89 23 283 14 402 -18z"/>
<path d="M3880 5979 c-74 -11 -84 -18 -112 -73 -57 -109 -3 -263 112 -321 165
-84 368 40 358 218 l-3 52 -87 5 c-65 4 -92 10 -105 23 -16 16 -16 18 -1 34 9
9 47 21 85 28 l68 12 -40 11 c-57 17 -199 23 -275 11z"/>
<path d="M6145 5984 c-11 -2 -45 -9 -75 -16 l-55 -11 68 -13 c99 -19 121 -41
67 -69 -18 -9 -56 -15 -105 -15 l-75 0 0 -55 c0 -141 104 -245 245 -245 141 0
245 104 245 247 0 61 -29 136 -59 152 -36 20 -202 35 -256 25z"/>
<path d="M5036 5089 c-133 -15 -267 -81 -321 -158 -98 -142 -10 -296 210 -367
115 -38 275 -38 391 0 154 50 247 143 247 249 0 62 -20 104 -73 155 -95 93
-277 141 -454 121z"/>
<path d="M5075 4289 c-16 -6 -86 -25 -155 -43 l-124 -33 61 -12 c97 -19 271
-32 353 -26 116 9 240 26 240 34 0 4 -27 13 -60 19 -33 7 -107 26 -163 42
-112 33 -109 32 -152 19z"/>
</g>
</svg>
